<svg viewbox="0 0 24 24" xmlns="http://www.w3.org/2000/svg">
    <path fill="#CCC" d="M12 0C5.372 0 0 5.373 0 12s5.372 12 12 12c6.627 0 12-5.373 12-12S18.627 0 12 0"/>
    <path fill='#F1F1F1' d="M 17.28 16.637 c 0.95 0.594 1.717 1.344 2.215 2.194 c -0.498 -0.85 -1.265 -1.6 -2.214 -2.194 Z m -4.968 -1.433 h -0.025 h 0.025 Z m 1.108 0.092 a 11.902 11.902 0 0 0 -0.155 -0.02 l -0.082 -0.009 l 0.082 0.01 c 0.052 0.006 0.103 0.012 0.155 0.02 Z m -0.645 -0.067 l -0.055 -0.004 l 0.055 0.004 Z m -0.775 -0.03 c -0.638 0 -1.3 0.062 -1.965 0.183 c -2.465 0.449 -4.532 1.75 -5.53 3.448 A 9.935 9.935 0 0 0 12 22.232 V 15.2 Z"/>
    <path fill="#FFF" d="M 17.28 16.637 c -0.24 -0.15 -0.49 -0.289 -0.745 -0.415 a 9.758 9.758 0 0 0 -2.803 -0.88 l -0.066 -0.01 a 14.13 14.13 0 0 0 -0.401 -0.055 l -0.082 -0.01 a 11.61 11.61 0 0 0 -0.154 -0.016 l -0.08 -0.008 l -0.174 -0.014 l -0.055 -0.004 a 8.036 8.036 0 0 0 -0.219 -0.013 l -0.096 -0.004 l -0.093 -0.003 h -0.025 a 9.56 9.56 0 0 0 -0.287 -0.006 v 7.034 a 9.946 9.946 0 0 0 7.495 -3.402 c -0.499 -0.85 -1.265 -1.6 -2.215 -2.194"/>
    <path fill="#F1F1F1" d="M 12 14.118 v -8.83 a 4.414 4.414 0 0 0 0 8.83"/>
    <path fill="#FFF" d="M 16.414 9.703 A 4.414 4.414 0 0 0 12 5.288 v 8.83 a 4.414 4.414 0 0 0 4.414 -4.415"/>
</svg>