<svg id="Layer_1" data-name="Layer 1"
    xmlns="http://www.w3.org/2000/svg" viewBox="0 0 400 400">
    <defs>
        <clipPath id="clip-path">
            <path fill="none" d="M22.96 17.65h364v364h-364z"/>
        </clipPath>
        <style>.cls-3{fill-rule:evenodd;fill:#ffffff}</style>
    </defs>
    <g clip-path="url(#clip-path)">
        <path class="cls-3" d="M220.58 272.6a17.75 17.75 0 00-4 11.92c.42 3.63 7.87 18.2 11.83 29a295.47 295.47 0 00-32.14-18.08 20.83 20.83 0 00-12.42 3.35c-6.37 3.52-15.17 9.25-21.78 13.73 2.26-6.6 4.64-14 6.14-19.52a27.83 27.83 0 001.28-11.35 71.87 71.87 0 00-15.17-18.91 104.28 104.28 0 0022.87-4.55 113.23 113.23 0 0017.91-23.89c3.25 5.39 6.95 11.92 9.8 16.47a30.52 30.52 0 006.85 8.24 25.44 25.44 0 009.91 2.46c2.62.22 5.84.36 9.1.5a72.32 72.32 0 00-10.16 10.61zm28.07-26.3a194.73 194.73 0 00-22.75-2c-1.26-.07-2.76 0-4 0a7.32 7.32 0 01-2.44-2.9c-4.55-7-11.15-18.68-15.17-24a15.72 15.72 0 00-7.28-5.9 8.29 8.29 0 00-8.23 2.05 23.66 23.66 0 00-3.48 4.55c-2.89 4.75-7.78 14.16-12.05 21.08-1.64 2.65-2.38 4.78-4.17 6.07a259.62 259.62 0 01-26.56 5.91 10 10 0 00-7.58 6.77 11.24 11.24 0 004.27 8.4 103.55 103.55 0 0119.14 18.27 126 126 0 01-2.77 13.87q-3.24 12.19-7 24.26a4.55 4.55 0 008.39 3.49 5.17 5.17 0 004.35-.77 266.74 266.74 0 0131.12-17.9 3.91 3.91 0 01.9-.2c9.58 4.46 27.3 18.33 36 22.59a12 12 0 0012 .24 11.31 11.31 0 003.57-10.8 334.21 334.21 0 00-12.13-35.31 22.51 22.51 0 014.73-5.73c5.19-4.94 11.86-9.93 15.38-13a19 19 0 004.58-5.08 8.54 8.54 0 00-.13-8.34 12.92 12.92 0 00-8.69-5.62z"/>
        <path d="M278.16 306.59a93.24 93.24 0 01-22.75 38 76.65 76.65 0 01-38.53 20.53 107.12 107.12 0 01-54.15-3 82 82 0 01-42.47-31.32 102.85 102.85 0 01-16.85-46.2 100.5 100.5 0 016.37-48.53 79.09 79.09 0 0123.44-30.33 103.31 103.31 0 0134.42-19.16 112.5 112.5 0 0126.7-3.59 80.66 80.66 0 0117.91.32 4.81 4.81 0 004.38-.78 6.44 6.44 0 004.55 5.57c2.6 1.35 4.93 3.26 7.83 4.85a175.47 175.47 0 0130.86 19.72 71.35 71.35 0 0118.39 22.19 83.23 83.23 0 015.47 35.09 130.81 130.81 0 01-5.52 36.66zm-13.65-112.9A189.63 189.63 0 00238 178.52a64.6 64.6 0 00-13.12-2.82 6.45 6.45 0 00-6.52 1.76 4.83 4.83 0 00-3.21-3.38 93.93 93.93 0 00-30.81-4.64 80.73 80.73 0 00-21 2.77 75.79 75.79 0 00-40.28 21.24 81.6 81.6 0 00-27.8 36.84 106.92 106.92 0 00-7 56.11A118 118 0 00108 339.25a96.94 96.94 0 0050.24 36.59 122 122 0 0061.45 3.38 91.68 91.68 0 0046.56-23.35 109.78 109.78 0 0027.85-43.79 145.59 145.59 0 007.08-41.71 80.74 80.74 0 00-6.93-43 250.76 250.76 0 00-29.74-33.68z" fill="#7a05de" fill-rule="evenodd"/>
        <path class="cls-3" d="M260.81 63.64A141.31 141.31 0 01268 88.16 162.74 162.74 0 00234.35 76a128 128 0 00-32.43-2.84A142.32 142.32 0 00164 82.85a166.85 166.85 0 00-25.27 12.88A76.24 76.24 0 01141.54 84 73.6 73.6 0 01149 67.82a88 88 0 0134.37-30.74 4.28 4.28 0 001.94-2q11.3-.18 22.58 0a341.89 341.89 0 0136.75 2.2 83.14 83.14 0 0116.17 26.36zm93.76 13.24a79.78 79.78 0 00-51.06-44A288.56 288.56 0 00208 17.65 334.15 334.15 0 00103.91 30c-26.6 9.47-46.3 25.91-49.68 52.77a136.85 136.85 0 0012 58.86 283.76 283.76 0 0032.21 62.57c2.73 4 11.89 1 9.62-4.79a278.25 278.25 0 01-25-49.08 147.3 147.3 0 01-14.7-65.58c3.22-21 19.81-32.49 40.8-39.44A222.12 222.12 0 01163.9 36a91.7 91.7 0 00-27.3 23 74.15 74.15 0 00-12.79 24.57 84 84 0 00-3 27.41 126.64 126.64 0 008.34 40 66 66 0 0012.94 20.68c4.29 3.9 14.38-.09 10.43-5.84a52.59 52.59 0 01-10.17-19.71 113.78 113.78 0 01-4.35-35.7c0-1.11.17-2 .17-3a209.76 209.76 0 0130.68-10.86 141.29 141.29 0 0134.25-5.9 125.19 125.19 0 0135.67 1.89 231.93 231.93 0 0131.5 8.66 96.15 96.15 0 01.83 14.8 87.36 87.36 0 01-8.18 36 115 115 0 01-12.36 22c-3.55 4.38 6.54 10.27 12 3.44a97.6 97.6 0 0017.11-26.8 94.73 94.73 0 008.75-34.26 109.26 109.26 0 00-2.41-25.63 119.61 119.61 0 00-8.2-24.06 117.43 117.43 0 00-17.2-27.17 217.23 217.23 0 0137.1 9.1 65.87 65.87 0 0143.08 33.23c4.31 11.43-2.07 33.24-11.25 56.11a342.79 342.79 0 01-37.31 70.83c-4.55 6.14 2.46 10.75 6.87 6.63a350.78 350.78 0 0041.77-72.68c11.75-26.51 18.28-52.29 13.7-65.86z"/>
    </g>
</svg>