<svg width="34" height="34" viewBox="0 0 34 34" xmlns="http://www.w3.org/2000/svg"><title>icon / alert / med / grey</title><g fill="none" fill-rule="evenodd"><path d="M16.615 0c9.14 0 16.616 7.477 16.616 16.615 0 9.14-7.474 16.616-16.613 16.616C7.477 33.23 0 25.757 0 16.618 0 7.477 7.477 0 16.615 0zm0 30.323c7.477 0 13.708-6.092 13.708-13.708C30.323 9 24.23 2.908 16.615 2.908 9.138 2.908 2.908 9 2.908 16.615c0 7.616 6.092 13.708 13.707 13.708z" fill="#ac2d34"/><path d="M15.923 23.123h1.246v1.8h-1.25v-1.8zm-.277-14.4h1.662l-.277 9.554h-1.243l-.14-9.554z" fill="#999"/><path d="M15.646 7.754h1.662c.554 0 .97.415.97.97L18 18.276c0 .554-.415.97-.97.97h-1.245c-.554 0-.97-.416-.97-.97l-.277-9.554c.14-.554.693-.97 1.108-.97z" fill="#ac2d34"/><ellipse cx="2.769" cy="1.8" rx="1.8" ry="1.8" transform="translate(13.846 22.154)" fill="#ac2d34"/></g></svg>