<svg data-name="Layer 1"
    xmlns="http://www.w3.org/2000/svg" viewBox="0 0 400 400">
    <defs>
        <clipPath id="a">
            <path fill="none" d="M12.06 38.48h375.96v322.24H12.06z"/>
        </clipPath>
    </defs>
    <g clip-path="url(#a)">
        <path d="M353.74 313.11A196.27 196.27 0 00310.63 302a301.93 301.93 0 00-43.74-3c-15.54.08-31-.12-46.54.13-10.45.16-20.89.53-31.32 1.32-21.03 1.55-41.77 3.55-62.4 6.18s-41.17 5.73-61.93 9.62a4.69 4.69 0 001.56 9.14c20.67-3.13 41.1-5.67 61.59-7.51s41-3.14 61.93-3.86c10.21-.39 20.36-.34 30.58-.14 15.44.3 30.88 1 46.37 1.44a303.47 303.47 0 0141.27 3.76 185.57 185.57 0 0139.15 10.48 3.35 3.35 0 01.8.55c-.66.62-1.57 1.3-2.07 1.81a25.53 25.53 0 01-11.21 6.27 94.31 94.31 0 01-21.17.7c-18.12-1.13-37-5.13-54.27-5.51-23.23-.38-46.23.56-69.23 2.47s-45.7 4.83-68.49 8.4a341.35 341.35 0 01-34.45 4.51 73.59 73.59 0 01-21.75-1.57 14.67 14.67 0 01-8.21-5.35 6.69 6.69 0 01-.64-7.41 5.26 5.26 0 00-9.15-5.2 16.62 16.62 0 00-1 15.42A25.21 25.21 0 0062.38 358a86 86 0 0025.06 2.6 342.59 342.59 0 0035.86-3.6c22.55-2.85 45.1-5 67.71-6.26s45.06-1.57 67.72-.6c17.1.65 35.66 5.09 53.58 6.38a109.45 109.45 0 0025.19-.82 44.21 44.21 0 0019.3-9.7 26.09 26.09 0 009.25-14.48c1.15-6.69-1.05-13.96-12.31-18.41z" fill="#ffffff"/>
        <path d="M386.69 129.37a5.29 5.29 0 00-7.44-.41c-5.07 3.13-10.3 5.45-15.33 8.63a63.44 63.44 0 00-9.49 7 121.34 121.34 0 00-13 15.66 4.7 4.7 0 004.94 8 4.41 4.41 0 001.09-.93c5.23-2.8 10.45-4.69 15.66-7.7a49.62 49.62 0 006.08-4.18 60 60 0 005.54-5 158.49 158.49 0 0011.62-13.62 5.3 5.3 0 00.36-7.38M281.12 88.9A4.7 4.7 0 00287 86c2.94-4.5 6.06-8.32 8.63-13a39.35 39.35 0 002.57-6 52.1 52.1 0 001.69-6.26c1.08-5.12 1.56-10.06 2.39-15.23a5.26 5.26 0 00-9.83-3.74c-2.82 4.48-5.7 8.58-8.21 13.25a48.93 48.93 0 00-2.75 6 35.93 35.93 0 00-1.8 6.27A155 155 0 00278.27 83a4.71 4.71 0 002.85 5.93M132.83 62.59a48.29 48.29 0 001.68 6.27 41.4 41.4 0 002.58 6c2.56 4.7 5.67 8.52 8.62 13a4.7 4.7 0 008.77-3c-.48-5.43-.48-10.4-1.48-15.72a39.1 39.1 0 00-1.82-6.27 49.25 49.25 0 00-2.8-6c-2.51-4.7-5.37-8.77-8.21-13.25a5.26 5.26 0 00-9.88 3.62 1.12 1.12 0 000 .13c.9 5.16 1.36 10.08 2.45 15.2M64.18 180.22a4.7 4.7 0 00-1.36-6.42c-4.58-4.48-8.19-9.4-12.72-13.92a70.59 70.59 0 00-6-5.36 78.16 78.16 0 00-6.6-4.7c-5.5-3.63-11.09-6.65-16.83-9.82a5.26 5.26 0 00-6.67 8.14l.23.18c4.49 4.84 8.35 10 13.06 14.7a69.93 69.93 0 0010 8.63 110.84 110.84 0 0020.47 9.93 4.69 4.69 0 006.42-1.36" fill="#7a05de"/>
        <path d="M225.69 222.47l-1.85 26.89-.82 4.18q-15.36-.49-30.72-.69a27 27 0 00-3.13-.17 14.31 14.31 0 01-.54-1.8 37.14 37.14 0 01-.9-5.92l-.49-16.33a5 5 0 00-4.7-7.83 65.77 65.77 0 01-21.48-1.48 10.41 10.41 0 00-1.24-.23c-.08-1.05-2.8-23.49 1.41-28.43 2-2.25 11.73-1.7 16.14-2.16a45.24 45.24 0 016.16-.09 4.6 4.6 0 007.94-3.32l1.67-14.94c.4-2.73.43-6.73.82-10.6h.11l19.51.73 9.77-.55v.11s1.57 28.16 1.76 29.16a4.7 4.7 0 005.29 3.87 77.71 77.71 0 018.36 0c6.88.23 13.66 1.09 20.49 1.47.12 0 .83.2 1.74.39-.72 3-2.1 6.75-2.21 8.33v14.34h-.19l-5 .56-8.3.09-14.88-.2a4.6 4.6 0 00-4.74 4.46v.16m27.39 9.53l6.61.39a32.66 32.66 0 006.62-.65 17.75 17.75 0 005.64-2.32 9.08 9.08 0 003.6-6.53c.19-1.27.13-4.47.16-4.84l.8-14.1c.09-2.91 1.11-8.31.89-12.67a18 18 0 00-2.71-9.39 8.6 8.6 0 00-7.14-4 76.58 76.58 0 00-9 1.37l-22.1 3.39 1.71-23a62 62 0 00.14-9.92 8.69 8.69 0 00-4-5.68 10 10 0 00-3.34-1.25 32.73 32.73 0 00-6.26 0l-11.37-.15h-19.62a39.23 39.23 0 00-7.83 1.34 8.92 8.92 0 00-5.4 5 24.37 24.37 0 00-1 7.83c.22 4.51 1.34 9.58 1.56 12.89l.65 8.39c-1.39-.22-2.8-.41-4.23-.56-4.62-.5-9.24-.57-13.89-.82-1.8-.09-4.61-.7-7-.64a12.86 12.86 0 00-6.44 2.24 19.62 19.62 0 00-7.37 10.27 46.58 46.58 0 00-1.87 13.78l1.68 16.21c.22 1 .22 3.14.6 4.59a11.51 11.51 0 001.56 4 12.81 12.81 0 005.17 4.37 31.32 31.32 0 008.19 2 46.73 46.73 0 0011 .14c2.26-.24 4.51-.6 6.75-1l-1.39 12.16a40.26 40.26 0 001.57 15.42 17.37 17.37 0 005.63 7.83 10.21 10.21 0 003.74 1.57 47.68 47.68 0 007 .23c5.45 0 25.27 1.21 33.57.89a13.9 13.9 0 0011.19-5.26 21.16 21.16 0 001.19-6.15 90.74 90.74 0 00-.18-10l-2.36-20 8.66 1.44z" fill="#ffffff"/>
        <path d="M93.9 304.8a4.7 4.7 0 004.1-5.14 303.53 303.53 0 012.87-81.82 168.67 168.67 0 0130.67-73.25 114.15 114.15 0 0169.22-40 82.8 82.8 0 0174.52 18 121.81 121.81 0 0133.43 61.79A521.1 521.1 0 01316 296a5.26 5.26 0 1010.52 0 535 535 0 00-3.95-114.73A137.14 137.14 0 00287 110.69a98.65 98.65 0 00-89.57-23.49 129.25 129.25 0 00-78.89 47.8 173.81 173.81 0 00-27.16 63.89 300.58 300.58 0 00-2.6 101.8 4.7 4.7 0 005.12 4.13" fill="#ffffff"/>
    </g>
</svg>