<svg id="Layer_1" data-name="Layer 1"
    xmlns="http://www.w3.org/2000/svg" viewBox="0 0 400 400">
    <defs>
        <clipPath id="clip-path">
            <path fill="none" d="M15.1 14.37h369.59v369.59H15.1z"/>
        </clipPath>
        <style>.cls-3{fill:#7a05de}</style>
    </defs>
    <g clip-path="url(#clip-path)">
        <path d="M383.63 242.59a43.33 43.33 0 00-30.15-31.11 71.9 71.9 0 00-32.43-.32 124.94 124.94 0 00-41.49 19.33 4.51 4.51 0 104.48 7.83A139.94 139.94 0 01317 227.2a64.32 64.32 0 0132 .91 28.13 28.13 0 0120.65 18.48 27.84 27.84 0 01-6.16 28.32 5.09 5.09 0 00-.18 7.19 5.14 5.14 0 007.23.19 39.5 39.5 0 0013.09-39.7zM128.91 44.35a24 24 0 0123-6.3 24.43 24.43 0 0116.45 15.68 60.05 60.05 0 014.11 14.83 114.86 114.86 0 011.6 16.44 291 291 0 01-1.81 34.92 4.51 4.51 0 108.76 2.15 4.1 4.1 0 00.11-.61 203.63 203.63 0 008.4-43.46 74.59 74.59 0 00-5.45-31.28 39.63 39.63 0 00-29.46-22.67 35.72 35.72 0 00-33.26 13.42 5.12 5.12 0 107.52 6.94zm92.29 251.48a36.36 36.36 0 01-13.09 22.22 16.34 16.34 0 01-14.94.84 124.93 124.93 0 01-29.26-15.23 175.3 175.3 0 01-40.09-34.48 138 138 0 01-27-45.27 65.65 65.65 0 01-3.6-33.59 31.2 31.2 0 012.21-6.32 5 5 0 003.57-2.29 29 29 0 0121.81-12.59 73.89 73.89 0 0140.67 9.38 107.36 107.36 0 0139.07 37.57A146.52 146.52 0 01221 267a73.06 73.06 0 01.32 28.83zm-89.81 47.53a163.35 163.35 0 01-27.51-11.18C95.38 328 87.3 322.94 79 318.32c-9.5-5.35-19.22-10.54-28.69-16q5.1-17.14 10.61-34.25a151.56 151.56 0 0015.8 12.69 97.29 97.29 0 0011.46 6.61 105.18 105.18 0 0012.32 5 125.25 125.25 0 0030.67 5.85h.2a185.89 185.89 0 0023.8 19.28 205.94 205.94 0 0021.56 12.68c-15.17 4.65-30.19 9.1-45.2 13.16zm-61.6 11.88c-4.3.44-14.09 1.92-23.63 2.25a51.71 51.71 0 01-11.59-.59c.45-2 .65-4.23.81-4.74l9.38-31.6c.59-2.05 1.25-4.1 1.85-6.16a219.25 219.25 0 0017.31 14.3 133.93 133.93 0 0013.86 8.74 129.32 129.32 0 0014.94 7 144.33 144.33 0 0015 4.77 302.23 302.23 0 01-37.82 6zM82.11 208a102.85 102.85 0 003.62 19.29 150.63 150.63 0 0027.11 50.93c1 1.32 2.22 2.56 3.3 3.85-4.48-2-8.78-4.33-13.21-6.55-4.82-2.38-9.61-4.88-14.49-7.26-8.07-3.85-16.08-7.44-23.86-11.37 2.5-7.5 4.85-15 7.53-22.47q4.83-13.3 10.06-26.42zm130.89-.3a120.83 120.83 0 00-45.75-40.7 87.32 87.32 0 00-48-9.06 43.2 43.2 0 00-18.92 7.46c-.14 0-.3.18-.44.24C87.93 173 83.69 172 54.82 244c-3.31 8.28-12 30.61-26.16 71.4l-9.78 31.8a90.56 90.56 0 00-3.65 11 10.19 10.19 0 001.37 7.07 25.23 25.23 0 0019.55 9.24 183.73 183.73 0 0035.42-3.08 337.14 337.14 0 0053.75-11.89c112.69-33.88 91-25.93 93.38-27.72a51.19 51.19 0 0017.53-25.24 84.76 84.76 0 001.2-42.9A160.54 160.54 0 00213 207.72z" fill="#ffffff"/>
        <path class="cls-3" d="M252.09 49.79a5.12 5.12 0 00-10.15 1.29 58.1 58.1 0 01-2.33 16.63A163.48 163.48 0 01233.78 84c-2.13 5.52-4.42 11-6.5 16.5-4.62 12.58-8.69 24.78-12.21 34.81a4.52 4.52 0 008.14 3.92c5.18-8.3 12.23-17.66 17.93-28.52a117 117 0 008.61-21.33 82.39 82.39 0 002.34-39.63"/>
        <path d="M314.73 148.19A301.69 301.69 0 01350.81 138a5.08 5.08 0 10-1.26-10.09 213.78 213.78 0 00-38.24 4.38 104.42 104.42 0 00-16.13 4.88 94.36 94.36 0 00-15.25 7.7 106.55 106.55 0 00-28.6 27.13 4.55 4.55 0 006.69 6.16 122.31 122.31 0 0134.28-21c7.36-3.32 14.76-6.34 22.43-8.97z" fill="#ffffff"/>
        <path class="cls-3" d="M101.51 105c4.21 7 12.2 9.41 22.39 1.4a14.47 14.47 0 003.62-16.23c-4.5-9.78-22.44-12.67-24.42-9.59a20.63 20.63 0 00-1.59 24.42zm218.2-8.59a10.32 10.32 0 005-5 17.08 17.08 0 00-.41-12.15c-3.3-7.62-9.95-14.21-16.3-11.46l-1.88 1.64a24.61 24.61 0 00-10.26 16.94 11.78 11.78 0 002.44 8.31c2.75 4 9.76 7 21.42 1.73m-17.34 185.24c-6.53-.86-15.69 1.77-16.54 7.7-3.28 6.9 13.86 13.73 14.16 13.86 3.6.92 7.7-1.54 10.68-8.24A10.3 10.3 0 00304 282a11.18 11.18 0 00-1.62-.34z"/>
    </g>
</svg>