<svg id="Layer_1" data-name="Layer 1"
    xmlns="http://www.w3.org/2000/svg" viewBox="0 0 400 400">
    <defs>
        <clipPath id="clip-path">
            <path fill="none" d="M11.47 11.29h376.71V388H11.47z"/>
        </clipPath>
        <style>.cls-4{fill-rule:evenodd;fill:#ffffff}</style>
    </defs>
    <g clip-path="url(#clip-path)">
        <path d="M290.7 46.81a7.16 7.16 0 015.3-4.42 13.62 13.62 0 018.95 1.3c3.14 2.17 10.54 9 11.44 9.76a9 9 0 005.38 2.61 8 8 0 009.37-6.36 2.74 2.74 0 00.05-.28 132 132 0 001.57-15 8.13 8.13 0 011.88-4.42c1.25-1.43 1.83-2.73 2.93-2.6 1.87.39 3.27 2.35 4.71 4.42a45 45 0 017 19.81 41 41 0 01-5.61 20.31 80.88 80.88 0 01-11.56 15.12l-.33-.27a207.06 207.06 0 01-35.46-21.74 15.92 15.92 0 01-5.59-18.28zM336.22 97a88.05 88.05 0 0020.11-23.8 51 51 0 006.28-21.1 58.58 58.58 0 00-5.29-23.84A31.65 31.65 0 00345.7 13.8a17.36 17.36 0 00-23.26 5.2 23.13 23.13 0 00-5.34 9.41 15.56 15.56 0 00-.56 2.61q-2.21-1.34-4.51-2.48A29.81 29.81 0 00292 26.71 22 22 0 00276.62 42a26.76 26.76 0 005.56 26.57A145.34 145.34 0 00336.22 97zm-162.36 69.53a4.31 4.31 0 006-1.18c0-.06.07-.12.11-.17a4.4 4.4 0 00-1.35-6.06 164.92 164.92 0 01-48.32-48.94 32.11 32.11 0 01-.44-37.44 17.7 17.7 0 0114-6.93 20.25 20.25 0 0114.68 6.37 55.9 55.9 0 015.84 7.17 77.41 77.41 0 015.08 8.18l3.38 6.47c.46.9.85 3.14 1.3 4.15a10 10 0 003.57 3.92 8.48 8.48 0 006.73.79 8.21 8.21 0 005.29-4.16 241.79 241.79 0 009.2-25.43 25.25 25.25 0 014.55-7.39A17 17 0 01226 60a29.86 29.86 0 0113.31 24.77A72.24 72.24 0 01223 130a98.44 98.44 0 01-39.24 30.93 5 5 0 103.11 9.49l.5-.19a110.24 110.24 0 0045.06-32.71 86.16 86.16 0 0021.06-52.9 45.22 45.22 0 00-19.36-38.09A32 32 0 00191 54.91a45.2 45.2 0 00-7.39 11.65 53.76 53.76 0 00-2.61 7.52c-1-1.46-2-3-3-4.49a68.52 68.52 0 00-7.77-9.07 36.1 36.1 0 00-26.9-10.65 32.65 32.65 0 00-25.34 14 44.87 44.87 0 001.57 52.44 176 176 0 0054.3 50.22z" fill-rule="evenodd" fill="#7a04dd"/>
        <path class="cls-4" d="M88.77 179.41c-.17.6 1.67.79 3.14 1.57 8.29 4.3 25.7 15.26 37.53 21.27a39 39 0 0015.89 5c4.3-.78 9.49-1.88 15-3a68.94 68.94 0 0120.53-2.09 27.84 27.84 0 0115.7 6.48c-3.14 3.24-6.17 6.49-9.21 9.64a87.94 87.94 0 00-12.88 16.26 34.33 34.33 0 00-4.7 15.16 19.88 19.88 0 006.09 16.45 26.77 26.77 0 0022.57 5.12 45 45 0 0018.83-8.77 126.13 126.13 0 0015.15-14.35 67.71 67.71 0 0021.38 5.23 48.53 48.53 0 0010.29-.44 42.44 42.44 0 0010-2.66 61.13 61.13 0 0019.64-13.38 4.4 4.4 0 00-4.9-7.3l-.16.11a76.39 76.39 0 01-19.12 5.19c-3.75.74-7.51 1.37-11.3 1.92-2.56.34-5.05.92-7.62 1.17a80.25 80.25 0 01-12.4.32 4.08 4.08 0 00-.68-1.67 4.38 4.38 0 00-6.19 0 163.75 163.75 0 01-20.19 17.27 33.36 33.36 0 01-14.44 5.56 16.12 16.12 0 01-10.34-1.85 6.39 6.39 0 01-2.24-6.79 20.17 20.17 0 013.4-8.49 73.81 73.81 0 0111.46-12.7c6.58-6.56 13.21-13.47 20.26-19.81a110.24 110.24 0 0114-11 50.24 50.24 0 018.05-4.48 23.46 23.46 0 017.67-2 29.3 29.3 0 019 .73c5.43 1.22 10.69 3.29 16.12 4.7a84.62 84.62 0 0014.57 2.53 118.13 118.13 0 0014.33.36 38.54 38.54 0 0012.55-2.49 90.72 90.72 0 0015.21-8l23.08-14.43a5 5 0 00-5-8.6L325 180.25a77 77 0 01-13.52 6.15 26.62 26.62 0 01-8.5 1.21 103 103 0 01-12.65-1.1 69.48 69.48 0 01-11.93-2.83c-5.58-1.85-11-4.25-16.55-5.84a44.58 44.58 0 00-13.73-1.8 38.72 38.72 0 00-10.61 2 64 64 0 00-13.22 6.59 121.4 121.4 0 00-16.29 12.6c-1.34 1.22-2.58 2.54-3.88 3.81a38.79 38.79 0 00-20.86-12.26 73 73 0 00-25.4-.89 98.66 98.66 0 01-22.32-.8c-7.85-3.14-18.52-6.94-27.36-10.28a98.46 98.46 0 00-19.51-6.06 4.38 4.38 0 000 8.71zm261.61 104.51c-8 1-15.9 1.25-23.78 2.6a87.56 87.56 0 00-15.7 3.93A107.2 107.2 0 00286.78 304a4.36 4.36 0 00-2.12 2.44 41.19 41.19 0 00-3.31-9.42A97.38 97.38 0 00268 279l-14.23-16.25a4.4 4.4 0 10-7.13 5.17l10.55 18.83a135.2 135.2 0 019.04 17.25 37.07 37.07 0 013.14 10.66 16.44 16.44 0 01-3.25 13.45 16 16 0 01-6.79 4.83c-.29-.52-.49-1.08-.8-1.57a101.2 101.2 0 00-9.42-11.83l-19.18-21.76a5 5 0 00-8.47 5.28 2.8 2.8 0 00.27.4l15.2 25.39c2.4 3.51 4.93 7.2 7.08 11a24.78 24.78 0 012.7 6.28 8 8 0 01-1.81 9.21 14.51 14.51 0 01-6.51 3c-.14-.39-.22-.81-.39-1.22a50.89 50.89 0 00-5.25-8.62c-3.14-3.86-6.28-7.53-9.7-11.16s-6.7-7-10.28-10.39a4.4 4.4 0 10-7.1 5.19c.11.14.22.27.34.4a194.86 194.86 0 0113.42 24.36l3.65 9-1.75 3.25a12.45 12.45 0 01-8.15 5.59 15 15 0 01-11.11-2.3 5 5 0 00-6.6 7.48A26.45 26.45 0 00214 388a26.37 26.37 0 0024.52-15 16.91 16.91 0 00.8-3.8 25.88 25.88 0 0012.9-2.76A21.69 21.69 0 00263 344.1a28 28 0 0012.71-6.39 31.35 31.35 0 0010.14-24.61 17.8 17.8 0 00-.48-2.72 4.24 4.24 0 005.3 1.45c7.32-2.33 14.52-3.27 21.87-4.84 3.14-.66 6.28-1.44 9.26-2.31s6.18-1.86 9.24-2.9c7.36-2.51 14.44-5.35 21.77-8.18a5 5 0 10-2.4-9.67z"/>
        <path class="cls-4" d="M196.18 352a5 5 0 00-9.42 3.33 13.8 13.8 0 01-2.48 11.43 14.11 14.11 0 01-9.41 5.95 13.8 13.8 0 01-6.68-1.43 17.61 17.61 0 01-6.16-3.89 23.74 23.74 0 01-3.28-3.87 8.08 8.08 0 01-1.43-3.14c-2.83-11.63 17-22.49 27.29-14a4.4 4.4 0 106.12-6.28 26.46 26.46 0 00-25.11-7.32 20.21 20.21 0 00-1.57-6 5 5 0 10-9.42 3.35 11.62 11.62 0 01-.15 6.48 27.85 27.85 0 00-10.3 10.34c-.5.14-.93.46-1.44.55a14 14 0 01-6.68-1.44 17.22 17.22 0 01-6.16-3.88 24.63 24.63 0 01-3.28-3.86 8.37 8.37 0 01-1.43-3.14c-2.94-12.13 17.26-22.23 27.29-14a4.4 4.4 0 106.12-6.28 25.31 25.31 0 00-21.19-7.9 21.8 21.8 0 00-1.57-10.85 5 5 0 00-9.41 3.33 13.53 13.53 0 01-2.14 10.83 29.29 29.29 0 00-8.33 6 12.34 12.34 0 01-1.43.54 13.86 13.86 0 01-6.69-1.43 17.48 17.48 0 01-6.15-3.89 24.11 24.11 0 01-3.28-3.85 8.55 8.55 0 01-1.41-3.17 12.86 12.86 0 017.61-14.05 17.86 17.86 0 0119.7 0 4.39 4.39 0 106.55-5.85 4.26 4.26 0 00-.43-.42A28.34 28.34 0 0099 278.35a30.19 30.19 0 00-6.74 3.56c-4.41-4.63-8.41-9.54-13.18-14.13a72.41 72.41 0 00-7-5.85 76 76 0 00-7.85-5.06 116.1 116.1 0 00-20.2-9 5 5 0 00-5 8.66q.24.14.48.24c5.72 3.94 10.57 8.81 16 13.36a127.27 127.27 0 0011.11 8.66 157.4 157.4 0 0018.41 10 26.66 26.66 0 00-4.7 18.65 23 23 0 002.87 7.85 36.94 36.94 0 006.8 8.21 32.93 32.93 0 0012.79 7 34.42 34.42 0 006 1 26.27 26.27 0 00-.11 6.57 23 23 0 002.88 7.85 37.23 37.23 0 006.66 8.19A33.34 33.34 0 00131 361a32.11 32.11 0 009.71 1.06v1.14a23.23 23.23 0 002.89 7.85 37.18 37.18 0 006.66 8.18 33.06 33.06 0 0012.81 7 25.75 25.75 0 0031.59-13.46 24.81 24.81 0 001.52-20.77z"/>
    </g>
</svg>