<svg xmlns="http://www.w3.org/2000/svg" viewBox="0 0 1145 190" xml:space="preserve">
  <path fill="#0f0e13" d="M1 82V1.055h1145c0 39.042 0 78.03-.425 117.48-6.502 1.256-5.305-3.111-5.7-6.637-.144-1.296-1.498-2.456-2.3-3.678-.85 1.173-2.425 2.337-2.44 3.522-.199 14.926-1.353 11.954 10.865 12.258v66.952H1c0-24.04 0-48.032.354-72.588 7.167 7.302 16.236 6.751 21.78 2.35 3.283.768 5.596 1.808 7.77 1.571.859-.093 1.942-3.013 2.002-4.679.232-6.483.095-12.98.095-19.47V82.373h-8.003c0 7.321.198 14.288-.095 21.234-.122 2.882-.841 5.94-2.094 8.527-1.982 4.092-6.046 4.433-9.94 3.664-3.764-.742-3.893-3.967-3.875-7.086.035-6.158.01-12.317.009-18.476C9 82.003 9 82.003 1 82m643.97 63.915c2.391-.948 4.783-1.896 7.82-2.984 1.095-.929 2.19-1.858 3.925-2.745 4.804.805 5.843-2.372 7.115-6.163l3.952-3.638c-2.938-1.676-.996-7.164-5.783-8.132-1.295-1.12-2.59-2.24-4.163-3.966-2.273-1.13-4.547-2.258-6.856-4.151-.734-3.885-3.338-4.41-5.384-1.766-3.263 4.217-6.551 7.898-12.046 8.962-.693.134-1.243 1.002-2.56 1.436-5.303-.085-10.607-.176-15.911-.237-.303-.003-.608.248-1.074-.32-1.335-.727-2.67-1.453-4.319-2.782-3.027-2.726-3.533-8.082-8.515-9.115-.09-1.727-.18-3.453-.31-5.99-.34-1.838-.682-3.676-.866-6.25-.68-3.136 1.24-7.156-2.377-9.196 1.416-1.107 3.194-1.961 4.18-3.37 2.586-3.696 4.826-7.633 7.934-11.493 1.09-.998 2.18-1.996 4.005-2.792 3.193 2.1 5.303.278 7.83-1.426 3.49.2 6.976.473 10.468.57 1.948.053 3.903-.188 6.114.204.283.477.567.954 1.1 2.07 2.201 1.48 4.402 2.961 6.773 5.103 3.168 3.544 4.877 1.86 6.857-1.743 3.65.21 6.115-.992 6.839-5.095 1.607-1.034 3.477-1.82 4.752-3.168 1.44-1.523 3.693-4.228 3.197-5.216-.96-1.91-3.6-2.978-6.009-4.735-.249-.291-.497-.583-.673-1.63-1.35-1.352-2.528-2.98-4.106-3.973-1.29-.812-3.054-.87-4.855-1.94-1.515-3.27-3.745-4.221-7.548-2.458-.9-.266-1.8-.533-2.56-1.533-1.273-1.046-2.547-2.092-4.501-3.486-2.62-1.191-4.932-1.18-7.193 1.371-4.143-4.271-5.13-4.274-10.714-.376-2.883-2.602-5.804-3.28-8.602.048-2.858 3.4-.317 5.337 2.076 7.33.462.385.645 1.105.323 2.057-.733 1.073-1.57 2.09-2.171 3.232-.769 1.463-1.346 3.026-2.764 4.675-.512 0-1.024 0-2.083-.116-.37-.05-.74-.1-.896-.767.03-2.023.578-4.261-.133-5.978-.347-.839-3.706-1.519-4.53-.842-1.646 1.351-2.484 3.687-4.359 6.025-.792-.142-1.584-.284-2.358-1.257-.02-1.386-.04-2.772.493-4.571l.268-4.565c-1.59.642-3.178 1.285-5.458 2.143-1.43 1.914-3.448 3.67-4.028 5.815-.263.97 2.33 2.713 3.38 4.822.045 1.43.09 2.861-.769 4.21-3.198-.19-6.06.197-7.548 3.761-1.446.422-3.134.536-4.237 1.398-.535.418-.177 3.2.123 3.263 1.802.38 3.705.28 6.434.336 6.389.29 6.834-.146 7.956-6.671 1.798.295 3.596.591 5.209 1.501-.92.763-1.841 1.525-2.848 3.01-1.668 2.158-3.336 4.315-5.684 6.178-3.354-1.998-5.687-.36-6.31 2.712-.682 3.356 1.983 4.474 4.929 5.214-1.381 4.944-5.074 1.675-7.56 1.51 1.39-3.492-1.126-5.113-3.567-5.548-1.423-.254-4.204 1.407-4.624 2.753-.466 1.495 1.059 3.61 1.068 5.794-.636 2.168-1.855 4.397-1.64 6.478.095.913 3.54 2.527 4.7 2.032 1.644-.702 2.582-3.058 4.532-4.787.667-.008 1.39.152 1.99-.052 4.027-1.368 5.37-.266 3.795 3.875-.203.532.194 1.291-.44 2.181-1.819.657-3.648 1.288-5.454 1.979-1.749.67-3.474 1.402-5.21 2.106.536 1.178.999 3.308 1.62 3.355 1.841.142 3.744-.54 6.7-1.104-.419-.325.347.268.652 1.368-3.78 1.708-3.623 5.04-4.016 8.776-1.673 1.872-3.647 3.563-4.92 5.676-.915 1.52-.897 3.602-1.295 5.434 2.051.166 4.146.653 6.138.383 1.29-.174 2.43-1.455 3.742-1.53l1.942 6.06c10.537-.06 12.41-2.487 9.61-11.68 1.016-.372 2.03-.745 3.539-.547.034 
  1.391.543 3.006.013 4.13-1.562 3.315-.352 4.883 2.463 6.261-1.197 2.028-3.863 5.083-3.305 5.881 1.416 2.022 4.278 3.03 6.186 5.001-.533 1.582-1.413 3.168-1.399 4.745.004.5 2.584 1.606 3.63 1.283.947-.292 2.257-2.669 1.921-3.22-.844-1.383-2.528-2.253-3.578-3.93.985-1.445 1.97-2.89 3.374-4.007.426.56.852 1.119 1.547 2.26.975.784 1.95 1.567 2.697 3.047.37 1.9.395 5.262 1.17 5.445 3.128.738 6.487.496 10.232.633l2.181 3.152c1.22-.982 2.334-2.168 3.695-2.877.966-.503 2.316-.64 3.406-.445 1.717.308 3.989 1.966 4.889 1.361 1.357-.912 1.734-3.282 3.305-4.95l5.32.908m426.208-2.282c.504.35 1.3 1.11 1.47.99 4.11-2.921 8.208-3.653 12.89.248-1.045-4.674-2.515-8.544-4.26-12.286-.459-.986-1.827-2.25-2.666-2.173-.965.09-2.095 1.37-2.648 2.404-1.782 3.331-3.33 6.787-4.97 9.28-.51-3.92 1.362-8.409-1.844-11.59-2.22 1.777-3.86 4.104-5.437 4.063-1.535-.041-3.005-2.508-4.882-4.263v15.189c1.25-1.348 1.602-1.653 1.864-2.023 1.023-1.443 2.018-2.906 3.024-4.362 1.18 1.258 2.187 2.796 3.604 3.674.918.569 2.434.173 3.855.849M418.37 122.76c-1.363-7.467-3.424-15.026 2.792-22.617.926 1.905 1.775 2.856 1.795 3.824.12 5.727-.006 11.459.058 17.188.066 6.023 3.259 8.93 8.958 6.922 4.137-1.457 8.808-3.955 11.187-7.405 10.625-15.41 12.158-33.208 11.585-51.294-.078-2.454-1.274-4.873-1.952-7.308l-1.316.31c-.149.593-.388 1.18-.432 1.781-1.122 15.37-6.161 21.07-21.032 24.027-1.709.34-3.219 1.58-4.907 2.147-1.982.666-4.044 1.386-6.096 1.47-2.259.092-4.56-.431-6.815-.84-1.588-.287-3.368-.475-4.648-1.329a119.327 119.327 0 0 1-10.094-7.557c-2.111-1.756-4.467-3.603-5.716-5.942-5.011-9.384-3.461-18.934.425-28.227.854-2.043 2.288-4.451 5.728-3.26.946.329 2.587-1.128 3.822-1.906 1.954-1.23 3.965-2.425 5.707-3.92 1.676-1.437 4.618-3.84 4.263-4.77-1.344-3.511-3.08-8.103-6.005-9.505-4.974-2.384-9.817.061-13.443 4.62-3.161 3.974-2.624 7.526.465 11.451-19.013 12.489-17.661 31.511-15.899 51.11-9.623-7.237-12.5-16.403-12.184-27.39.33-11.492 7.415-18.646 15.243-25.593-12.94 3.012-23.936 16.457-23.76 29.037.087 6.23 1.021 12.478 1.95 18.66 1.122 7.46 2.138 15 4.137 22.247 1.958 7.099 9.078 11.902 15.699 11.224 7.416-.759 9.202-2.498 5.989-9.3-.387-.819-.555-1.742-.824-2.616 2.236 2.746 3.75 5.797 5.34 8.807 5.135 9.726 11.578 17.242 24.148 16.289 7.786-.59 9.509-2.746 5.832-10.335m490.64-21.245c.553 8.775 4.308 15.171 13.065 18.097 1.457.487 2.759 1.752 3.87 2.91 4.802 4.995 8.839 11.055 14.418 14.887 6.57 4.512 14.152 8.452 21.846 10.162 6.88 1.528 14.55.063 21.798-.746 16.405-1.83 28.618-9.824 35.82-25.099.826-1.751 3.559-3.246 5.64-3.647 7.227-1.39 10.997-6.311 9.538-13.075-1.096-5.078-4.82-7.226-9.196-8.917-1.316-.509-2.913-1.516-3.416-2.703-3.232-7.634-6.22-15.372-9.243-23.093-4.988-12.737-13.858-21.662-26.376-27.06-.529-.228-.873-.883-1.38-1.42 1.672-2.906 3.726-5.482 4.644-8.413.636-2.031-.293-4.553-.523-6.856-2.223.727-4.914.908-6.554 2.314-2.207 1.892-3.983 4.547-5.252 7.206-1.568 3.287-3.7 3.529-6.845 2.916-4.551-.887-9.22-1.913-13.785-1.7-2.653.124-5.198 2.554-7.791 3.947 2.197 1.295 4.394 2.59 6.589 3.888.14.083.264.193.685.506-21.104 5.33-32.825 19.053-36.738 39.984-.274 1.467-1.87 3.261-3.284 3.837-5.172 2.103-7.374 5.903-7.53 12.075M254.94 73.427c-12.135-8.708-23.115-6.206-33.296 4.056l-1.077-1.03 2.306-6.718-1.143-1.146c-3.02 2.622-6.449 4.912-8.93 7.97-2.002 2.466-3.376 5.74-4.097 8.87-.97 4.216-2.095 8.86-1.236 12.913 1.074 5.07 3.822 9.876 6.342 14.529 3.602 6.65 10.25 9.731 17.31 8.758l.821 2.497c.848-.33 1.377-.4 1.72-.689 6.106-5.165 6.078-5.137 12.77-.603.82.556 2.145.907 3.06.672 1.97-.507 3.814-2.07 5.732-2.111 5.546-.118 8.662-4.237 11.17-7.704 6.207-8.578 7.337-18.058 5.252-28.932-1.655-8.632-6.283-12.368-13.696-15.934l2.091 8.087-1.006.388a369.457 369.457 0 0 1-4.094-3.873M168.905 91.93c-6.1-15.546-26.358-13.655-31.943-2.017-2.242 4.67-2.64 10.488-2.835 15.822-.343 9.399 5.582 16.218 15.79 17.85 7.26 1.162 14.667-1.63 18.734-9.974.635-1.303 1.135-3.776.491-4.345-1.02-.903-3.21-1.167-4.62-.746-1.33.396-2.535 1.867-3.372 3.142-2.645 4.032-7.704 5.922-12.664 3.992-4.478-1.742-5.878-5.44-5.156-10.711h28.182c-.934-4.609-1.706-8.417-2.607-13.013m-97.301-5.832c-4.707-6.64-15.332-7.057-20.67-2.144l-9.91-2.54c0 13.614-.074 25.913.132 38.208.017 1.031 1.773 2.663 2.96 2.923 3.016.662 4.945-.247 4.967-4.1.044-7.445.331-14.913 1.023-22.324.503-5.39 4.387-7.658 10.536-7.113 5.044.447 5.427 3.876 5.38 7.834-.087 7.164.058 14.332-.063 21.495-.047 2.82.676 4.362 3.842 4.413 3.309.054 4.308-1.354 4.25-4.52-.155-8.328.076-16.665-.138-24.992-.056-2.2-1.167-4.373-2.31-7.14m25.76 25.673c.533 1.027 1.02 2.081 1.604 3.078 4.089 6.974 12.435 10.244 20.484 8.047 6.277-1.713 11.067-8.32 11.098-15.523-3.95-.578-7.712-1.661-9.321 4.077-.879 3.133-3.788 5.572-7.345 4.393-2.719-.9-6.593-2.712-7.148-4.848-1.242-4.772-1.291-10.059-.777-15.027.514-4.967 4.098-7.129 9.248-7.035 
  4.014.073 6.003 1.92 7.071 5.567 1.065 3.635 4.256 2.626 6.664 2.24.788-.126 1.948-2.557 1.719-3.687-2.352-11.597-17.926-16.307-26.88-8.383-8.283 7.329-9.01 16.41-6.416 27.1m979.897-45.54c-1.325 3.84-2.783 7.642-3.89 11.544-.302 1.063.073 2.894.835 3.508.64.516 2.296-.209 3.497-.41.815-.136 2.013-.742 2.373-.411 3.321 3.048 4.874.527 6.004-1.529a4466.77 4466.77 0 0 1 3.8 2.799l2.885-4.617c3.594 6.92 8.377 7.412 15.238 1.691 1.49 1.095 2.905 2.946 4.136 2.83 1.45-.137 2.74-1.976 4.278-3.222.262.323.647 1.173 1.3 1.526 1.371.742 3.079 1.923 4.276 1.588.951-.265 1.762-2.472 1.906-3.89.284-2.797.244-5.664-.045-8.463-.107-1.04-1.287-1.968-1.978-2.947-.946.872-1.98 1.671-2.802 2.648-.428.509-.48 1.332-.502 1.4-2.293-1.494-4.21-3.422-6.44-3.902-1.079-.233-2.744 2.25-3.632 3.047-2.172-1.043-4.804-3.455-6.947-3.08-3.598.631-6.885 3.036-9.995 4.546l-3.024-4.634-6.242 5.253c-1.211-1.453-2.76-3.31-5.03-5.276m-662.324 96.427c.325.757.509 1.629 1.006 2.248 1.125 1.402 2.406 2.678 3.623 4.006 1.078-1.32 2.536-2.482 3.167-3.99a351.843 351.843 0 0 0 7.128-18.422c.426-1.204-.25-2.798-.417-4.213-1.363.677-3.228 1.006-3.986 2.101-1.633 2.358-2.695 5.111-4.113 7.945-.828-2.439-1.92-4.563-2.232-6.797-.659-4.707-4.097-3.427-6.87-3.478-3.52-.065-3.125 2.583-3.28 4.927-.116 1.756-.561 3.49-.86 5.234-1.541-1.259-1.873-2.48-2.194-3.705-.335-1.276-.596-2.575-1.003-3.827-.795-2.44-6.071-4.167-8.895-2.31-1.06.696-1.453 3.704-.942 5.263 1.996 6.096 4.384 12.072 6.847 18 .535 1.286 1.984 2.192 3.012 3.273 1.059-1.13 2.401-2.106 3.118-3.423 1.543-2.834 2.765-5.844 4.33-9.243.94 2.348 1.612 4.028 2.56 6.41m-29.87 3.948c2.996-7.917 7.04-15.518 8.104-24.776-6.598 1.106-5.694 7.326-8.848 10.473-.859-2.652-1.598-5.01-2.385-7.35-1.24-3.682-4.49-3.492-7.015-2.675-1.35.437-2.176 3.077-2.84 4.87-.589 1.593-.628 3.39-.91 5.096-1.9-2.407-2.479-4.799-3.282-7.113-1-2.879-5.425-4.336-8.882-2.968-3.58 1.416-1.465 4.008-.834 5.87 2.07 6.1 4.425 12.108 6.815 18.094.427 1.067 1.646 2.68 2.321 2.597 1.222-.15 2.76-1.137 3.366-2.222 1.758-3.148 3.12-6.517 4.87-10.304 1.311 3.633 2.386 6.74 3.556 9.812 1.227 3.222 3.017 4.38 5.964.596m-198.063-70v-7.13c2.412-.398 4.007-.66 5.683-.935V82.38l-5.972-.76.585-6.01c6.186-1.33 6.37-1.64 5.04-8.085-10.674-1.748-12.995.406-14.801 13.911l-4.256 1.273v5.815L178 89.575c0 9.709.091 19.172-.052 28.632-.047 3.133.883 4.676 4.214 4.524 3.114-.142 4.982-1.063 4.889-4.692-.174-6.818-.048-13.644-.047-21.438m878.023 5.737c.349-2.413.577-4.852 1.106-7.225.217-.972 1.085-1.798 1.656-2.69.722.913 1.8 1.731 2.078 2.764.378 1.406-.088 3.03.25 4.456.265 1.125 1.162 2.956 1.84 2.985 3.424.143 6.867-.201 9.474-.333.465-3.042 1.312-5.695 1.123-8.273-.147-2.01-1.078-4.642-2.576-5.696-1.684-1.186-4.391-1.18-6.662-1.22-7.327-.135-14.67-.289-21.98.092-2.169.113-5.054 1.463-6.117 3.175-.888 1.428.409 4.213.748 6.461l-.959 4.842c3.194.225 6.935 1.608 9.457.415 4.208-1.992 2.17-5.827.154-8.802 4.459-2.487 5.995-1.539 6.44 3.185.225 2.375-1.707 6.193 3.968 5.864m-6.045-44.659c.733 1.34 1.323 3.709 2.226 3.835 3.317.465 6.738.184 9.82.184 0-2.78-.517-5.157.113-7.174 1.123-3.59 1.627-6.585-2.72-8.099-4.628-1.613-7.817-.25-9.738 3.797-.353.744-1.485 1.117-3.253 2.363.943-4.885-.756-7.06-4.33-7.195-4.311-.162-7.371 2.11-8.66 6.169-1.351 4.249.267 7.619 4.282 9.47 3.793 1.75 7.416 1.55 10.255-2.085.537-.688 1.283-1.214 2.005-1.265m7.528 66.296 8.294-2.623c-.139-.095.325.108.639.45 2.822 3.072 6.402 3.008 9.52 1.29 2.903-1.6 3.693-4.546 1.522-7.662-.242-.347-.307-1.07-.11-1.428 1.387-2.514 1.11-4.907-1.75-5.503-2.475-.514-5.587-.476-7.725.642-1.999 1.044-3.139 1.923-5.09.25-3.186-2.73-7.087-3.133-9.82-.128-1.83 2.01-3.236 5.867-2.574 8.277.693 2.526 4.084 4.312 7.094 6.435M81.997 103.5c.002 4.978.111 9.96-.037 14.933-.086 2.88.82 4.449 3.907 4.271 2.73-.157 5.251-.138 5.188-4.163-.17-10.782-.151-21.57 0-32.354.047-3.327-1.233-4.339-4.401-4.25-2.93.083-4.776.667-4.686 4.138.142 5.472.032 10.95.03 17.425M444.421 142c-2.99.005-6.012-.237-8.956.133-1.224.154-3.238 1.584-3.268 2.487-.258 7.918-.15 15.848-.15 23.942h9.158V155.99c2.528 0 4.524.194 6.455-.075 1.09-.152 2.074-1.065 3.106-1.636-1.082-.753-2.082-1.705-3.272-2.194-.856-.35-1.97-.143-2.962-.08-3.89.245-3.892-1.81-2.882-5.025 3.093 0 6.081.217 9.009-.109 1.137-.127 2.139-1.48 3.202-2.274-1-.857-1.885-2.178-3.027-2.46-1.724-.426-3.627-.128-6.413-.137m7.586-108.491c-6.197-7.82-14.655-5.461-18.072 4.093-.418 1.167-.339 3.27.412 3.965 3.134 2.9 6.526 5.551 10.024 8.008.898.63 2.627.565 3.807.23 7.61-2.161 9.686-9.833 3.83-16.296m628.18 28.519c2.935-.293 6.376.269 8.676-1.095 2.88-1.706 4.764-2.486 7.424-.033.754.695 2.396.425 3.63.598.167-1.226.75-2.58.421-3.654-.921-3.012-1.957-6.055-3.48-8.79-.74-1.329-2.71-2.804-4.047-2.735-1.313.068-2.931 1.786-3.701 3.176-1.596 2.88-2.719 6.024-4.032 9.049L1081.052 57c.874-2.574 1.892-5.055 2.493-7.633.2-.863-.367-2.433-1.087-2.896-4.256-2.738-9.409.218-9.472 5.3-.017 1.333.117 2.678-.023 3.995-.512 4.815 1.637 6.833 7.227 6.26M748.988 74.043c-.004-5.148.116-10.301-.11-15.44-.05-1.135-1.326-2.216-2.037-3.322-.952 1.119-2.53 2.139-2.727 3.377-.42 2.663-.129 5.438-.129 8.167-3.592-3.215-6.013-6.7-8.764-9.904-.808-.941-2.553-1.421-3.86-1.404-.463.006-1.25 2.11-1.285 3.273-.145 4.977-.196 9.968.02 14.94.059 1.35 1.173 2.654 1.802 3.979 1.026-1.292 2.695-2.474 2.94-3.9.473-2.741.138-5.62.138-8.443 3.748 3.383 6.025 7.046 8.67 10.42 1.966 2.506 4.244 3.656 5.342-1.743m-48.042 32.54 3.025.975c.052-1.044.467-2.246.092-3.102-1.413-3.22-3.357-5.82-.507-9.805 1.6-2.237 1.54-7.297-2.603-8.373-3.77-.98-7.988-.3-12.002-.172-.332.01-.878 1.393-.889 2.144-.08 5.491-.186 10.99.07 16.47.049 1.053 1.657 2.033 2.546 3.046.766-1.034 1.647-2.004 2.268-3.12.792-1.423 1.374-2.963 2.047-4.453 1.318 1.088 2.71 2.101 3.925 3.296.692.68 1.092 1.657 2.028 3.094m90.264-30.905c.993.635 1.961 1.679 2.987 1.738.545.032 1.484-1.57 1.725-2.562.438-1.796.486-3.686.715-5.69 5.543.863 4.185 9.47 11.02 8.252-.228-1.23-.141-2.312-.61-3.031-2.208-3.384-2.531-6.349-.57-10.348 2.247-4.584-.778-8.446-5.938-8.964-1.478-.148-2.986.026-4.472-.075-3.552-.244-5.207 1.24-5.09 4.916.158 4.968.079 9.945.233 15.764m37.354 23.225c3.565-.369 5.785.566 5.547 4.829-.072 1.277 1.167 2.629 1.805 3.946.694-1.447 1.898-2.865 1.986-4.348.265-4.481.255-8.997.009-13.48-.084-1.536-1.182-3.017-1.817-4.522-.7 1.423-1.996 2.852-1.981 4.268.04 3.617-1.625 4.467-4.896 4.539-3.74.08-5.588-.994-5.478-5.06.034-1.233-1.45-2.507-2.24-3.762-.806 1.228-2.24 2.422-2.309 3.69-.27 4.981-.27 9.995 0 14.977.068 1.273 1.493 2.473 2.295 3.706.793-1.253 2.105-2.442 2.271-3.773.328-2.627.246-5.162 4.808-5.01m-33.538 8.18-3.064-9.061c1.56-2.833 3.363-6.765 2.104-8.627-1.587-2.348-5.648-3.065-8.7-4.35-.703-.295-1.643.006-2.47-.036-2.72-.142-3.938 1.111-3.9 3.847.065 4.812-.15 9.633.102 14.433.078 1.482 1.29 2.905 1.984 4.355.642-1.328 1.253-2.673 1.936-3.98.615-1.178 1.307-2.315 1.966-3.47 1.207.736 2.608 1.284 3.565 2.265.889.912 1.052 2.585 1.994 3.377 1.059.888 2.632 1.164 4.483 1.247m-35.222-7.825-2.812 7.977 1.415.958c1.207-.809 2.77-1.364 3.559-2.47 3.714-5.211 6.436-5.13 10.315.308.624.875 2.129 1.123 3.227 1.661.309-1.262 1.193-2.728.83-3.753-1.928-5.455-4.093-10.832-6.366-16.154-.447-1.047-1.89-2.549-2.59-2.41-1.184.235-2.577 1.407-3.113 2.546-1.616 3.44-2.862 7.052-4.465 11.337m-33.472-21.501c.587-.897 1.868-2.03 1.655-2.654-2.09-6.12-4.228-12.242-6.784-18.177-1.218-2.825-4.043-2.403-5.428.852-2.211 5.195-4.187 10.499-6.015 15.84-.39 1.137.28 2.636.463 3.967 1.177-.835 2.358-1.666 3.532-2.507 1.42-1.017 2.767-2.73 4.268-2.876 1.614-.156 3.545.903 5.008 1.91 1.135.783 1.764 2.302 3.3 3.645m-328.718-2.99c1.95 2.791 4.673 4.228 7.516 2.028 2.805-2.17 5.47-4.913 7.154-7.978.9-1.64.297-4.996-.905-6.647-1.194-1.639-4.073-3.077-6.07-2.907-5.546.472-10.16 9.476-7.695 15.505m38.648 6.123c4.535-4.257 4.92-7.865 1.9-14.235-1.57-3.314-4.146-4.827-7.495-4.17-3.646.713-6.276 3.62-5.448 7.142.935 3.98 3.243 7.725 5.476 11.24.504.793 3.166.213 5.567.023m351.988-3.757c-.599-1.014-.973-2.402-1.86-2.938-.867-.523-2.393.14-3.386-.286-1.416-.607-2.61-1.731-3.9-2.635 1.267-1.088 2.419-2.379 3.84-3.201 1.093-.632 2.527-.675 3.808-.98l.084-1.588c-1.532-.49-3.143-.822-4.572-1.523-1.147-.562-2.074-1.572-3.098-2.384 1.14-.86 2.162-2.07 3.445-2.499 1.919-.64 4.02-.73 6.045-1.054l-.186-2.629c-4.207 0-8.513-.484-12.555.333-1.043.21-1.342 4.495-1.818 6.94-.218 1.12-.037 2.316-.037 3.478 0 13.085 0 13.085 14.19 10.966m352.093-1.985c-.826-7.154-4.733-10.276-11.655-9.023-1.235.223-3.165 1.395-3.26 2.29-.399 3.75-.35 7.569-.147 11.345.04.745 1.38 1.793 2.304 2.054 5.437 1.537 9.929-.668 12.758-6.666m-421.4 32.83 3.762-1.705-.295-1.697c-2.357-.204-4.762-.19-7.05-.7-1.171-.261-2.133-1.459-3.189-2.233.942-.886 1.811-1.878 2.86-2.611.463-.324 1.43.1 1.926-.207 1-.62 1.836-1.507 2.74-2.285-.913-.787-1.758-1.683-2.767-2.317-.496-.312-1.463.093-1.923-.236-1.042-.746-1.901-1.747-2.834-2.645 1.06-.77 2.022-1.867 3.207-2.224 1.381-.417 3.003.009 4.431-.32.727-.166 1.5-1.098 1.772-1.856.132-.366-.831-1.626-1.315-1.636-3.623-.07-7.436-.54-10.77.483-1.124.345-1.144 4.63-1.462 7.14-.207 1.634-.056 3.315-.036 4.975.139 11.395-1.402 9.984 10.943 10.075m-14.45-52.165c-2.382-.48-4.882-1.68-7.122-1.31-7.165 1.188-11.565 8.189-9.753 14.67 2.422 8.655 7.93 10.145 16.23 8.121 1.442-.351 2.472-2.395 3.692-3.658-1.586-.037-3.268-.44-4.74-.049-5.815 1.54-10.293-.864-10.767-6.026-.618-6.733 3.601-9.78 10.536-7.74 1.116.33 2.416.035 3.63.03-.347-1.237-.694-2.472-1.707-4.038m43.355 43.329c.66-.07 1.407.033 1.964-.244 1.336-.666 2.583-1.51 3.866-2.283-1.21-.84-2.392-1.729-3.65-2.488-.38-.23-1.141.092-1.444-.169-.884-.76-1.624-1.686-2.42-2.548.876-.783 1.642-1.98 2.657-2.255 1.562-.422 3.33-.033 4.94-.35.731-.145 1.29-1.159 1.928-1.778-.62-.637-1.21-1.785-1.865-1.823-3.144-.185-6.326-.264-9.447.067-.856.091-2.174 1.708-2.21 2.665-.213 5.645-.27 11.31.028 16.946.056 1.072 1.818 2.724 2.997 2.928 2.582.446 5.308.286 7.947.049.884-.08 1.679-1.142 2.515-1.756-.777-.677-1.456-1.688-2.353-1.95-1.235-.36-2.638-.103-3.963-.2-3.264-.236-4.219-1.659-1.49-4.811m358.975 22.783c.061-1.49-.1-3.037.248-4.457.347-1.414 1.206-2.701 1.84-4.044.695 1.28 1.472 2.525 2.043 3.858.241.562.021 1.313.058 1.975.119 2.106-.24 5.06 2.982 4.335 1.284-.29 2.463-2.947 2.88-4.717.547-2.322-1.395-5.393 2.317-6.622-.524-1.372-1.002-3.91-1.579-3.933-4.771-.186-10.042-1.015-14.121.75-1.756.761-1.06 7.194-1.464 11.05-.034.326-.012.672.056.993.627 2.94 2.06 3.644 4.74.812M810.15 85.023c-.663-.006-1.327-.037-1.99-.015-5.951.203-10.128 3.004-11.712 8.257-1.37 4.54.02 8.568 3.384 11.761 3.464 3.29 10.39 4.138 14.43 1.728 1.204-.718 1.863-2.348 2.772-3.56-.402-.335-.803-.67-1.204-1.007-1.073.336-2.153.65-3.218 1.01-3.441 1.163-6.792 1.752-9.584-1.42-2.641-3.002-2.804-6.415-.913-9.676 2.122-3.66 5.589-3.36 9.239-2.546 1.596.355 3.403-.235 5.115-.395l.136-1.694c-1.878-.799-3.755-1.597-6.454-2.443m-52.986-8.435c4.008.096 8.028.377 12.016.136.842-.05 1.568-2.011 2.348-3.092-1.28-.156-2.556-.391-3.84-.452-2.693-.129-5.762.629-8.004-.418-3.763-1.758-4.69-5.54-3.115-9.375 1.707-4.156 5.45-5.14 11.089-3.657 1.19.312 2.6-.207 3.909-.343-.803-1.237-1.32-3.032-2.458-3.617-5.67-2.92-11.934-1.016-15.58 4.415-3.14 4.675-1.79 12.029 3.635 16.403m-25.978 27.368-7.653-.867c2.744 5.734 6.692 5.376 10.045 4.555 2.016-.493 4.407-2.61 5.125-4.554 1.257-3.401-.942-5.972-4.02-7.618-1.026-.55-2.219-.928-3.029-1.705-1.014-.972-1.713-2.274-2.548-3.433 1.48-.326 2.946-.762 4.443-.948 1.66-.206 3.348-.184 5.023-.26l.15-2.487c-2.694-.535-5.558-1.883-8.035-1.37-2.32.482-5.454 2.616-5.974 4.611-.501 1.922 1.56 4.847 3.115 6.852 1.015 1.31 3.273 1.576 4.723 2.65 2.309 1.712 2.636 3.453-1.365 4.574m-28.252 25.862c-.635 3.233-2.476 5.029-5.885 4.58-3.507-.464-5.185-2.5-5.076-6.145.13-4.298.03-8.603.03-12.905l-2.059-.286c-.632.996-1.77 1.971-1.81 2.99-.167 4.308-.568 8.73.188 12.917.773 4.279 4.16 6.703 8.63 6.971 4.506.271 8.146-1.628 9.04-6.104.899-4.493.783-9.205.885-13.826.02-.88-1.018-1.783-1.568-2.675-.755.88-2.09 1.718-2.16 2.65-.275 3.638-.149 7.307-.215 11.833m355.047-9.708c-.029-3.148.085-6.309-.179-9.437-.072-.86-1.175-2.14-1.977-2.286-.769-.14-2.278.749-2.565 1.52-1.38 3.698-2.55 4.362-4.442.285-.414-.892-1.873-1.71-2.885-1.753-.584-.025-1.712 1.536-1.774 2.44-.224 3.299-.262 6.634-.015 9.93.077 1.024 1.281 1.964 1.97 2.943.953-.868 1.962-1.685 2.846-2.62.802-.847 1.468-1.824 2.194-2.744.613.859 1.209 1.731 1.845 2.573.717.95 1.47 1.873 2.209 2.808.91-.928 1.821-1.856 2.773-3.66m2.17-40.33c1.59 1.638 7.203 2.284 11.055 1.306.246-2.937.602-5.837.703-8.746.136-3.899-2.604-6.058-7.193-6.378-4.337-.302-4.918 2.14-4.738 5.555.131 2.469.056 4.948.172 8.264m-346.16 54.45 1.5-5.879c1.48 1.34 3.09 2.563 4.394 4.056.964 1.104 1.292 2.814 2.34 3.781.895.826 2.413.977 3.655 1.427-1.403-4.489-4.858-7.806-5.027-11.283-.165-3.385 3.034-6.933 4.997-10.896-6.514-.515-5.698 7.681-11.161 8.274l-1.45-8.334-1.987.165c0 6.912-.023 13.823.06 20.734.005.392.879.773 1.348 1.159.436-.793.871-1.586 1.331-3.204m415.709-24.474c-3.31-3.014-6.03-2.327-7.799 1.567-1.29 2.84-2.264 5.852-3.07 8.87-.272 1.016.405 2.287.648 3.442 1.062-.235 2.492-.115 3.12-.767 2.35-2.439 4.337-2.451 6.767-.073.713.698 2.339.465 3.546.658.17-1.22.752-2.562.435-3.64-.93-3.166-2.216-6.228-3.647-10.057m-37.658-6.816c.923-.76 2.741-1.824 2.605-2.222-.45-1.319-1.603-2.397-2.542-3.64 2.531-2.457 3.925-8.594 1.633-9.37-2.382-.806-5.327-.866-7.745-.212-1.031.278-1.488 3.162-1.94 4.93-.278 1.092-.055 2.312-.053 3.475.016 7.065.016 7.065 8.042 7.039m8.914 9.725c-.14-3.853-2.977-4.578-5.876-4.527-1.924.033-5.359.813-5.485 1.654-.606 4.033-.367 8.203-.199 12.315.01.227 2.08.37 3.19.551.305-3.21 3.028-3.222 5.164-4.356 1.503-.798 2.18-3.155 3.206-5.637m-5.027 27.419c.494-1.363 1.468-2.763 1.365-4.08-.146-1.872-.783-5.044-1.742-5.255-2.5-.552-5.576-.42-7.87.638-1.823.841-.574 11.048 1.304 13.2.735-1.378 1.43-2.684 2.125-3.985l5.494 4.407.979-.899a175.046 175.046 0 0 0-1.655-4.026m15.91-53.066c-2.816.116-5.449 1.774-2.795 3.98 2.888 2.4 2.65 4.84 3.074 7.7.215 1.45 1.55 2.736 2.378 4.096.83-1.353 1.91-2.617 2.43-4.08.732-2.062.91-4.317 1.594-6.401.444-1.352 1.367-2.547 2.076-3.812-1.302-.497-2.568-1.175-3.916-1.436-1.274-.248-2.634-.057-4.84-.047m-67.576 46.81c-1.504 4.86-.298 8.155 3.98 10.187 2.79 1.325 5.546 1.714 7.827-2.318-2.021 0-3.636.463-4.69-.108-1.58-.857-3.301-2.227-3.924-3.791-.392-.986.812-3.054 1.866-4.019.784-.718 2.52-.293 3.747-.664.903-.272 1.668-1.006 2.494-1.535-.729-.504-1.418-1.364-2.193-1.45-3.342-.367-6.698-.47-9.107 3.698M583.04 60.248c-1.104-1.414-2.071-2.97-3.351-4.2-1.212-1.165-2.917-2.938-4.107-2.731-1.612.28-3.606 1.954-4.16 3.49-.379 1.05 1.161 3.15 2.321 4.295 1.217 1.201 3.025 1.79 4.537 2.708 3.467 2.104 5.055.972 4.76-3.562M89.066 67.471c-.82-.059-1.638-.135-2.458-.173-4.032-.188-4.771 2.047-4.7 5.608.077 3.848 2.175 4.269 5.14 4.099 4.306-.248 5.298-3.492 2.018-9.534m354.97 67.27 4.534 6.168c1.791-1.49 4.923-2.892 5.026-4.49.123-1.897-1.985-4.847-3.85-5.638-1.205-.513-3.707 2.025-5.71 3.96m667.9 7.067c.214-3.795-.966-8.049 3.425-11.048h-9.55c.815 3.791 1.427 7.035 2.242 10.227.3 1.17 1.08 2.217 1.64 3.32.702-.57 1.404-1.141 2.242-2.499M373.04 122.464c-2.434 2.135-3.17 4.754-.232 6.592 1.712 1.072 4.627 1.35 6.47.629.996-.39 1.67-3.923 1.084-5.526-1.078-2.955-3.607-4.193-7.322-1.695m37.58-39.657c-.108 1.269-.8 3.17-.225 3.703 3.25 3.008 7.094 3.44 11.022 1.298.697-.38 1.451-1.542 1.36-2.235-.098-.75-1.07-1.841-1.808-1.975-3.203-.578-6.458-.861-10.35-.791m154.919 28.774c3.194 1.82 5.303.08 5.936-2.664.273-1.185-1.649-3.187-3.007-4.28-.53-.427-3.07.38-3.268 1.047-.498 1.676-.183 3.594.339 5.897m534.468 25.927.608 6.982 1.56-.216v-13.596l-1.561-.085a198.776 198.776 0 0 0-.607 6.915m-493.607-93.54-5.837.977c.23 1.295.041 3.285.781 3.73 1.296.778 3.78 1.346 4.626.639.962-.805.676-3.104.43-5.346m-35.396 31.53c-1.173-1.16-2.211-2.97-3.567-3.252-.893-.186-3.033 1.736-3.167 2.883-.132 1.137 1.525 3.485 2.443 3.509 1.407.036 2.854-1.465 4.291-3.14m-.176 46.928c-.065-1.731.132-3.542-.356-5.144-.144-.472-2.468-.828-3.351-.376-.93.477-1.333 1.984-1.966 3.041 1.671.956 3.343 1.91 5.673 2.479m-9.398-33.16c-.306-3.833-2.727-3.817-5.233-2.488-.806.428-1.554 2.855-1.113 3.42 1.93 2.473 4.174 2.346 6.346-.932m29.767 55.966c1.55.754 3.053 1.824 4.679 2.064.479.07 1.847-2.23 1.8-3.402-.04-.936-2.033-2.728-2.426-2.547-1.535.706-2.778 2.045-4.053 3.885m-27.55-14.84c-.52.39-1.476.767-1.487 1.17-.05 1.754.079 3.535.435 5.245.041.199 2.738.204 2.787-.016.377-1.698.505-3.476.466-5.223-.01-.402-.965-.783-2.2-1.176m-2.494-64.158c1.696-.026 3.457.187 5.042-.246.403-.11.782-2.81.223-3.367-.871-.867-3.128-1.651-3.762-1.153-1.024.804-1.204 2.68-1.503 4.766m15.117 67.836-3.193 2.317c.659.835 1.191 2.162 2.011 2.373.895.23 2.912-.52 2.938-.935.073-1.161-.632-2.37-1.756-3.755m-24.344-54.522c-.31-1.161-.332-2.585-1.051-3.373-.374-.41-2.187.029-2.959.607-.548.41-.443 1.694-.629 2.588 1.372.227 2.744.454 4.64.178z"/>
  <path fill="#ffffff" d="M1 82.469c8-.466 8.001-.466 8.003 7.768 0 6.159.026 12.318-.01 18.476-.017 3.119.112 6.344 3.876 7.086 3.894.769 7.958.428 9.94-3.664 1.253-2.587 1.972-5.645 2.094-8.527.293-6.946.095-13.913.095-21.234H33v15.761c0 6.492.137 12.988-.095 19.471-.06 1.666-1.143 4.586-2.002 4.68-2.174.236-4.487-.804-7.77-1.573-5.544 4.402-14.613 4.953-21.78-2.813C1 106.312 1 94.625 1 82.47z"/>
  <path fill="#ffffff" d="M1146 123.583c-12.218.113-11.064 3.085-10.866-11.841.016-1.185 1.59-2.349 2.44-3.522.803 1.222 2.157 2.382 2.302 3.678.394 3.526-.803 7.893 5.699 7.102.425 1.389.425 2.778.425 4.583z"/>
  <path fill="#ffffff" d="M418.596 123.098c3.452 7.252 1.729 9.407-6.057 9.998-12.57.953-19.013-6.563-24.148-16.289-1.59-3.01-3.104-6.061-5.34-8.807.27.874.437 1.797.824 2.616 3.213 6.802 1.427 8.541-5.99 9.3-6.62.678-13.74-4.125-15.698-11.224-1.999-7.246-3.015-14.786-4.136-22.246-.93-6.183-1.864-12.43-1.951-18.66-.176-12.58 10.82-26.026 23.76-29.038-7.828 6.947-14.913 14.1-15.243 25.593-.315 10.987 2.561 20.153 12.184 27.39-1.762-19.599-3.114-38.621 15.9-51.11-3.09-3.925-3.627-7.477-.466-11.452 3.626-4.558 8.469-7.003 13.443-4.62 2.925 1.403 4.661 5.995 6.005 9.507.355.93-2.587 3.332-4.263 4.77-1.742 1.494-3.753 2.689-5.707 3.92-1.235.777-2.876 2.234-3.822 1.906-3.44-1.192-4.874 1.216-5.728 3.259-3.886 9.293-5.436 18.843-.425 28.227 1.25 2.339 3.605 4.186 5.716 5.942 3.229 2.686 6.6 5.228 10.094 7.557 1.28.854 3.06 1.042 4.648 1.33 2.255.408 4.556.931 6.815.839 2.052-.084 4.114-.804 6.096-1.47 1.688-.567 3.198-1.808 4.907-2.147 14.87-2.957 19.91-8.656 21.032-24.027.044-.601.283-1.188.432-1.782l1.316-.31c.678 2.436 1.874 4.855 1.952 7.31.573 18.085-.96 35.883-11.585 51.293-2.38 3.45-7.05 5.948-11.187 7.405-5.7 2.008-8.892-.9-8.958-6.922-.064-5.73.063-11.46-.058-17.188-.02-.968-.87-1.919-1.795-3.824-6.216 7.59-4.155 15.15-2.567 22.954z"/>
  <path fill="#ffffff" d="M909.013 101.09c.154-5.746 2.356-9.546 7.528-11.65 1.415-.575 3.01-2.37 3.284-3.836 3.913-20.931 15.634-34.655 36.738-39.984-.421-.313-.545-.423-.685-.506a4750.178 4750.178 0 0 0-6.59-3.888c2.594-1.393 5.14-3.823 7.792-3.947 4.564-.213 9.234.813 13.785 1.7 3.145.613 5.277.37 6.845-2.916 1.269-2.659 3.045-5.314 5.252-7.206 1.64-1.406 4.33-1.587 6.554-2.314.23 2.303 1.16 4.825.523 6.856-.918 2.931-2.972 5.507-4.644 8.412.507.538.851 1.193 1.38 1.42 12.518 5.4 21.388 14.324 26.376 27.061 3.023 7.721 6.01 15.46 9.243 23.093.503 1.187 2.1 2.194 3.416 2.703 4.376 1.69 8.1 3.839 9.196 8.917 1.46 6.764-2.311 11.685-9.538 13.075-2.081.4-4.814 1.896-5.64 3.647-7.202 15.275-19.415 23.27-35.82 25.1-7.247.808-14.918 2.273-21.798.745-7.694-1.71-15.275-5.65-21.846-10.162-5.58-3.832-9.616-9.892-14.417-14.887-1.112-1.158-2.414-2.423-3.871-2.91-8.757-2.926-12.512-9.322-13.063-18.523m23.77 14.404c.918 2.516 1.22 5.56 2.852 7.464 12.4 14.48 27.606 21.047 47.004 16.976 12.697-2.664 23.87-7.309 29.003-19.95 1.874-4.615-.61-10.716 4.869-14.914l-8.16-2.208-.784-1.667c1.448-1.03 3.207-1.819 4.255-3.161 1.038-1.332 2.279-3.53 1.847-4.817-2.582-7.706-4.997-15.578-8.674-22.78-4.096-8.02-9.848-15.009-18.382-19.049-3.908-1.85-6.591-1.035-8.407 3.068-1.064 2.403-2.37 4.862-4.163 6.721-1.177 1.22-3.418 1.416-5.182 2.07-.582-1.75-1.501-3.471-1.657-5.259-.173-1.996.346-4.051.6-6.42-16.646.92-29.114 7.36-35.59 22.4-2.896 6.727-6.708 13.84-.708 21.441 2.571 3.259 1.205 4.644-4.296 5.12 1.542 4.889.072 10.8 5.573 14.965m-13.04-12.445-1.657-4.75c-3.526 5.074-2.418 9.813 2.45 12.371a327.505 327.505 0 0 0-.793-7.621m105.801.377c-3.724 2.3-2.838 5.144-1.194 8.728 3.932-2.632 5.067-5.177 1.194-8.728z"/>
  <path fill="#ffffff" d="M255.19 73.683a611.258 611.258 0 0 0 3.844 3.617l1.006-.388-2.09-8.087c7.412 3.566 12.04 7.302 13.695 15.934 2.085 10.874.955 20.354-5.251 28.932-2.51 3.467-5.625 7.586-11.17 7.704-1.92.04-3.762 1.604-5.733 2.11-.915.236-2.24-.115-3.06-.67-6.692-4.535-6.664-4.563-12.77.602-.343.29-.872.359-1.72.689l-.82-2.497c-7.06.973-13.71-2.108-17.311-8.758-2.52-4.653-5.268-9.459-6.342-14.53-.859-4.053.267-8.696 1.236-12.911.72-3.13 2.095-6.405 4.096-8.87 2.482-3.059 5.911-5.349 8.93-7.97l1.144 1.145-2.306 6.718 1.077 1.03c10.18-10.262 21.16-12.764 33.544-3.8m-22.06 17.3c-3.892-.271-3.635 2.666-2.905 4.679 1.555 4.285 5.162 3.351 7.067 3.19.82-3.323 1.366-5.43 1.853-7.552.478-2.082.895-4.177 1.339-6.267l.418 1.267c-2.331 1.536-4.662 3.071-7.773 4.684m9.992 24.008-16.362-2.536c7.196 7.384 16.34.892 23.604 4.485l2.9-4.953c-3.75 1.197-6.514 2.08-10.142 3.004M222.1 87.049l3.88-7.146-1.246-.643c-3.637 3.25-4.47 5.293-2.634 7.789m17.08 17.09 2.218-3.689-1.1-.587c-.587 1.412-1.173 2.825-1.117 4.277M219.293 81.2l.586-2.116-1.657.342c.263.76.526 1.52 1.071 1.773zM168.97 92.323c.836 4.202 1.608 8.01 2.542 12.619H143.33c-.722 5.27.678 8.969 5.156 10.711 4.96 1.93 10.02.04 12.664-3.992.837-1.275 2.042-2.746 3.372-3.142 1.41-.421 3.6-.157 4.62.746.644.57.144 3.042-.491 4.345-4.067 8.344-11.474 11.136-18.733 9.975-10.21-1.633-16.134-8.452-15.791-17.851.194-5.334.593-11.151 2.835-15.822 5.585-11.638 25.843-13.529 32.008 2.411m-25.14 2.248c.288 1.113.543 3.184.87 3.196 5.677.198 11.363.142 17.046.142l1.067-1.857c-2.221-2.292-4.055-5.675-6.75-6.63-4.592-1.63-9.21-.397-12.233 5.149z"/>
  <path fill="#ffffff" d="M71.861 86.388c.885 2.476 1.996 4.649 2.052 6.85.214 8.326-.017 16.663.137 24.992.059 3.165-.94 4.573-4.25 4.52-3.165-.052-3.888-1.595-3.84-4.414.12-7.163-.025-14.33.061-21.495.048-3.958-.335-7.387-5.38-7.834-6.148-.545-10.032 1.724-10.535 7.113-.692 7.411-.98 14.879-1.023 22.324-.022 3.853-1.951 4.762-4.967 4.1-1.187-.26-2.943-1.892-2.96-2.923-.206-12.295-.133-24.594-.133-38.208l9.911 2.54c5.338-4.913 15.963-4.495 20.927 2.435z"/>
  <path fill="#ffffff" d="M97.227 111.392c-2.458-10.314-1.73-19.394 6.552-26.723 8.955-7.924 24.529-3.214 26.88 8.383.23 1.13-.93 3.561-1.718 3.687-2.408.386-5.599 1.395-6.664-2.24-1.068-3.646-3.057-5.494-7.07-5.567-5.151-.094-8.735 2.068-9.25 7.035-.513 4.968-.464 10.255.778 15.027.555 2.136 4.43 3.948 7.148 4.848 3.557 1.179 6.466-1.26 7.345-4.393 1.609-5.738 5.37-4.655 9.321-4.077-.031 7.202-4.82 13.81-11.098 15.523-8.049 2.197-16.395-1.073-20.484-8.047-.584-.997-1.071-2.05-1.74-3.456z"/>
  <path fill="#ffffff" d="M607.806 139.06a33.188 33.188 0 0 0-1.739-2.126c-4.214-.34-5.319-2.92-6.009-5.92-3.174-.764-4.384-2.332-2.822-5.647.53-1.124.02-2.739-.245-4.778-.11-3.501.012-6.354.512-9.217 1.374-.139 2.37-.269 3.366-.398 5.284.373 5.79 5.729 8.933 9.09-3.092 6.749-3.049 6.898 2.365 8.316l2-5.468c.304-.133.61-.384.912-.38 5.304.06 10.608.151 16.294.646 1.014 1.716 1.646 3.024 2.351 4.484l5.14-3.072-.264 1.336c3.12 1.702 6.239 3.403 9.31 5.454-1.627 4.476-4.54 5.333-8.505 3.302-.373 2.052-.665 3.653-1.283 5.215-1.867.75-3.407 1.539-6.255 2.998-2.703-3.146-5.646-7.098-9.137-10.485-3.423-3.322-7.431-1.994-9.167 2.526-2.16 1.414-3.959 2.769-5.757 4.123z"/>
  <path fill="#8f8f8f" d="M1077.622 66.282c1.91 1.912 3.459 3.77 4.67 5.222l6.242-5.253 3.024 4.634c3.11-1.51 6.397-3.915 9.995-4.545 2.143-.376 4.775 2.036 6.947 3.079.888-.796 2.553-3.28 3.633-3.047 2.229.48 4.146 2.408 6.439 3.902.022-.068.074-.891.502-1.4.822-.977 1.856-1.776 2.802-2.648.691.979 1.87 1.908 1.978 2.947.289 2.799.329 5.666.045 8.463-.144 1.418-.955 3.625-1.906 3.89-1.197.335-2.905-.846-4.276-1.588-.653-.353-1.038-1.203-1.3-1.526-1.538 1.246-2.828 3.085-4.278 3.222-1.23.116-2.646-1.735-4.136-2.83-6.86 5.721-11.644 5.229-15.238-1.69l-2.884 4.616-3.801-2.799c-1.13 2.056-2.683 4.577-6.004 1.529-.36-.33-1.558.275-2.373.411-1.201.201-2.856.926-3.497.41-.762-.614-1.137-2.445-.835-3.508 1.107-3.902 2.565-7.705 4.251-11.49m25.342 6.398c-1.398-.037-2.817-.2-4.176.014-.225.035-.606 2.144-.195 2.53.813.766 2.507 1.657 3.145 1.29.876-.502 1.109-2.125 1.226-3.834z"/>
  <path fill="#ffffff" d="M414.8 162.304c-.811-2.032-1.484-3.712-2.423-6.06-1.565 3.4-2.787 6.409-4.33 9.243-.717 1.317-2.06 2.293-3.118 3.423-1.028-1.081-2.477-1.987-3.012-3.273-2.463-5.928-4.85-11.904-6.847-18-.51-1.559-.118-4.567.942-5.264 2.824-1.856 8.1-.13 8.895 2.311.407 1.252.668 2.551 1.003 3.827.321 1.224.653 2.446 2.194 3.705.299-1.744.744-3.478.86-5.234.155-2.344-.24-4.992 3.28-4.927 2.773.051 6.211-1.23 6.87 3.478.313 2.234 1.404 4.358 2.232 6.797 1.418-2.834 2.48-5.587 4.113-7.945.758-1.095 2.623-1.424 3.986-2.101.167 1.415.843 3.01.417 4.213a351.843 351.843 0 0 1-7.128 18.423c-.63 1.507-2.089 2.669-3.167 3.99-1.217-1.329-2.498-2.605-3.623-4.007-.497-.62-.68-1.491-1.144-2.6zm-29.843 4.67c-2.837 3.412-4.627 2.254-5.854-.968-1.17-3.072-2.245-6.18-3.557-9.812-1.75 3.787-3.11 7.156-4.869 10.304-.605 1.085-2.144 2.071-3.366 2.222-.675.084-1.894-1.53-2.32-2.597-2.391-5.986-4.746-11.993-6.816-18.095-.631-1.86-2.746-4.453.834-5.87 3.457-1.367 7.882.09 8.882 2.97.803 2.313 1.382 4.705 3.282 7.112.282-1.706.321-3.503.91-5.096.664-1.793 1.49-4.433 2.84-4.87 2.526-.817 5.776-1.007 7.015 2.674.787 2.341 1.526 4.7 2.385 7.35 3.154-3.146 2.25-9.366 8.848-10.472-1.065 9.258-5.108 16.86-8.214 25.148z"/>
  <path fill="#ffffff" d="M187.004 97.087c-.001 7.308-.127 14.134.047 20.952.093 3.629-1.775 4.55-4.889 4.692-3.331.152-4.26-1.39-4.214-4.524.143-9.46.052-18.923.052-28.632l-4.717-1.052v-5.815l4.256-1.273c1.806-13.505 4.127-15.659 14.802-13.91 1.33 6.444 1.145 6.754-5.041 8.084l-.585 6.01 5.972.76v6.158l-5.683.934v7.616z"/>
  <path fill="#8f8f8f" d="M1064.664 102.512c-5.312.155-3.38-3.663-3.604-6.038-.446-4.724-1.982-5.672-6.441-3.185 2.016 2.975 4.054 6.81-.154 8.802-2.522 1.193-6.263-.19-9.456-.415l.958-4.842c-.34-2.248-1.636-5.033-.748-6.461 1.063-1.712 3.948-3.062 6.117-3.175 7.31-.381 14.653-.227 21.98-.093 2.27.042 4.978.035 6.662 1.22 1.498 1.055 2.429 3.686 2.576 5.697.189 2.578-.658 5.231-1.123 8.273-2.607.132-6.05.476-9.474.333-.678-.029-1.575-1.86-1.84-2.985-.338-1.426.128-3.05-.25-4.456-.278-1.033-1.356-1.85-2.078-2.765-.571.893-1.44 1.72-1.656 2.691-.53 2.373-.757 4.812-1.469 7.4z"/>
  <path fill="#8f8f8f" d="M1058.946 57.404c-.686.326-1.432.852-1.97 1.54-2.838 3.635-6.46 3.834-10.254 2.085-4.015-1.851-5.633-5.221-4.283-9.47 1.29-4.059 4.35-6.331 8.661-6.169 3.574.135 5.273 2.31 4.33 7.195 1.768-1.246 2.9-1.62 3.253-2.363 1.921-4.047 5.11-5.41 9.739-3.797 4.346 1.514 3.842 4.509 2.72 8.099-.631 2.017-.114 4.393-.114 7.174-3.082 0-6.503.28-9.82-.184-.903-.126-1.493-2.495-2.262-4.11m6.181.69-.609.068c.207.063.413.126.61-.067z"/>
  <path fill="#ffffff" d="M613.939 52.81c-.312-.565-.495-1.285-.957-1.67-2.393-1.993-4.934-3.93-2.076-7.33 2.798-3.328 5.72-2.65 8.865.503.325 1.97.387 3.389.4 3.657 3.281 1.656 5.646 2.85 7.895 4.374-2.686 4.321-2.096 5.61 3.578 7.594.583-1.595 1.17-3.202 2.134-4.795 2.183.91 5.52 1.786 5.53 2.701.048 4.07-.857 8.15-1.418 12.227-1.952.108-3.907.349-5.855.295-3.492-.096-6.979-.37-10.683-1.25-.867-2.365-1.72-4.003-2.113-5.745-.402-1.785-1.16-4.231-.345-5.404 2.222-3.202 1.26-5.075-1.655-6.912l-3.3 1.756z"/>
  <path fill="#ffffff" d="M587.981 79.094c1.669-2.158 3.337-4.315 5.364-6.658 1.728.367 3.353 1.682 4.416 1.325 2.811-.945 5.38-2.613 8.322-3.794 1.158 1.487 2.038 2.777 2.919 4.067-2.378 3.84-4.618 7.778-7.204 11.474-.986 1.409-2.764 2.263-4.93 3.43-1.941.822-3.81 1.34-4.191 2.394-.992 2.751-1.332 5.737-2.18 8.728-.612.48-.976.861-1.529 1.404-.468.334-.759.488-1.362.486l-2.678-1.225c-.119-.654-.516-1.413-.313-1.945 1.575-4.14.232-5.243-3.795-3.875-.6.204-1.323.044-2.51-.226-.817-1.38-1.114-2.482-1.268-3.872.487-.83.83-1.37 1.172-1.912 2.633-.495 6.326 2.774 7.969-2.6.588-.518.915-.603 1.315-.54.178.182.283.216.387.25-.103-.195-.206-.39-.195-.965.173-2.236.232-4.09.291-5.946z"/>
  <path fill="#8f8f8f" d="M1066.11 123.969c-2.61-2.117-6-3.903-6.694-6.429-.662-2.41.745-6.267 2.573-8.277 2.734-3.005 6.635-2.603 9.82.128 1.952 1.673 3.092.794 5.09-.25 2.14-1.118 5.251-1.156 7.725-.642 2.862.596 3.138 2.989 1.751 5.503-.197.358-.132 1.08.11 1.428 2.17 3.116 1.38 6.062-1.522 7.661-3.118 1.719-6.698 1.783-9.52-1.29-.314-.34-.778-.544-.639-.45-3.068.971-5.681 1.798-8.693 2.618m-.125-10.616c-2.529 1.413-2.022 3.068-.152 4.5.484.37 1.63-.127 2.471-.226-.543-1.464-1.085-2.928-2.319-4.274z"/>
  <path fill="#ffffff" d="M81.997 103c.003-5.976.113-11.454-.03-16.926-.09-3.47 1.756-4.055 4.687-4.138 3.168-.089 4.448.923 4.4 4.25-.15 10.783-.17 21.572 0 32.354.064 4.025-2.458 4.006-5.187 4.163-3.087.178-3.993-1.39-3.907-4.271.148-4.974.039-9.955.037-15.432zm362.904 38.999c2.307.01 4.21-.29 5.934.137 1.142.282 2.027 1.603 3.027 2.46-1.063.794-2.065 2.147-3.202 2.274-2.928.326-5.916.11-9.009.11-1.01 3.214-1.009 5.27 2.882 5.024.993-.063 2.106-.27 2.962.08 1.19.489 2.19 1.44 3.272 2.194-1.032.57-2.016 1.484-3.106 1.636-1.931.269-3.927.075-6.455.075v12.572h-9.157c0-8.094-.11-16.024.15-23.942.029-.903 2.043-2.333 3.267-2.487 2.944-.37 5.965-.128 9.435-.133z"/>
  <path fill="#dbdbdb" d="M613.924 134.877c1.375-4.46 5.383-5.789 8.806-2.467 3.491 3.387 6.434 7.339 9.137 10.485 2.848-1.46 4.388-2.249 6.429-2.783.57.425.64.596.611 1.071-.076 1.45-.055 2.596-.034 3.742-.794 1.75-1.171 4.12-2.528 5.032-.9.605-3.172-1.053-4.89-1.36-1.09-.196-2.44-.06-3.405.444-1.361.709-2.475 1.895-3.695 2.877l-2.18-3.152c-3.746-.137-7.105.105-10.233-.633-.775-.183-.8-3.544-.86-6.09 2.97-.895 5.632-1.144 9.499-1.505l-6.657-5.66zm14.259-82.864-8.013-4.043c-.012-.268-.074-1.687-.1-3.485 5.023-4.621 6.009-4.618 10.44.162.47 1.88.653 3.253.797 4.328 5.365 1.085 6.997-1.434 6.79-5.86 1.272 1.046 2.546 2.092 3.445 3.591-.82 1.837-2.009 3.527-1.586 4.554 2.592 6.298 7.83 10.355 12.992 14.455-3.27 6.45-3.27 6.45-1.871 8.713.42.702.715 1.163 1.01 1.624-1.188 3.553-2.897 5.236-6.018 1.043 2.187-5.354 1.924-5.763-4.107-7.116-.023-.053.065.014.16.312-.978.768-2.05 1.24-3.123 1.711-.283-.477-.567-.954-.98-1.681.432-4.326 1.337-8.407 1.29-12.477-.011-.915-3.348-1.792-5.756-2.98-1.161-1.413-1.72-2.532-2.246-3.586l-3.124.735z"/>
  <path fill="#ffffff" d="M452.274 33.77c5.59 6.201 3.515 13.873-4.095 16.034-1.18.335-2.909.4-3.807-.23-3.498-2.457-6.89-5.108-10.024-8.008-.751-.695-.83-2.798-.412-3.965 3.417-9.554 11.875-11.912 18.338-3.831z"/>
  <path fill="#8f8f8f" d="M1079.763 62.03c-5.163.57-7.312-1.448-6.8-6.263.14-1.317.006-2.662.023-3.995.063-5.082 5.216-8.038 9.472-5.3.72.463 1.288 2.033 1.087 2.896-.601 2.578-1.619 5.059-2.493 7.633l4.028 1.542c1.313-3.025 2.436-6.168 4.032-9.049.77-1.39 2.388-3.108 3.7-3.176 1.338-.07 3.307 1.406 4.048 2.735 1.523 2.735 2.559 5.778 3.48 8.79.329 1.075-.254 2.428-.42 3.654-1.235-.173-2.877.097-3.63-.598-2.661-2.453-4.545-1.673-7.425.033-2.3 1.364-5.74.802-9.102 1.097z"/>
  <path fill="#646464" d="M647.958 131.03c-3.12-1.7-6.239-3.402-9.358-5.104l.265-1.336-5.14 3.072c-.706-1.46-1.338-2.768-2.002-4.438.584-.89 1.134-1.758 1.827-1.892 5.495-1.064 8.783-4.745 12.046-8.962 2.046-2.645 4.65-2.12 5.208 2.456-5.43 4.868-5.399 5.278 1.199 12.175 2.09-2.772 4.1-5.44 6.11-8.109 1.296 1.12 2.59 2.24 3.776 4.068-5.342 5.246-5.344 5.248.068 10.28.356.332.774.596 1.163.891-.562 3.683-1.601 6.86-6.993 5.854-1.433-1.427-2.278-2.653-3.136-4.246.369-2.06.751-3.756 1.133-5.45-3.232-2.044-3.232-2.044-6.166.741z"/>
  <path fill="#ffffff" d="M748.975 74.479c-1.085 4.963-3.363 3.813-5.328 1.307-2.646-3.374-4.923-7.037-8.67-10.42 0 2.822.334 5.702-.138 8.443-.246 1.426-1.915 2.608-2.94 3.9-.63-1.325-1.744-2.63-1.803-3.979-.216-4.972-.165-9.963-.02-14.94.035-1.164.822-3.267 1.285-3.273 1.307-.017 3.052.463 3.86 1.404 2.75 3.203 5.172 6.69 8.764 9.904 0-2.729-.291-5.504.13-8.167.195-1.238 1.774-2.258 2.726-3.377.711 1.106 1.988 2.187 2.037 3.323.226 5.138.106 10.291.097 15.875zm-48.231 31.807c-.734-1.14-1.134-2.117-1.826-2.797-1.214-1.195-2.607-2.208-3.925-3.296-.673 1.49-1.255 3.03-2.047 4.453-.62 1.116-1.502 2.086-2.268 3.12-.889-1.013-2.497-1.993-2.546-3.046-.256-5.48-.15-10.979-.07-16.47.011-.751.557-2.133.889-2.144 4.014-.128 8.232-.808 12.002.172 4.143 1.076 4.203 6.136 2.603 8.373-2.85 3.984-.906 6.585.507 9.805.375.856-.04 2.058-.092 3.102-1.008-.325-2.017-.65-3.227-1.272m-7.667-14.646c1.034 1.12 1.899 2.776 3.16 3.175.862.272 2.51-1.017 3.33-2.003.32-.385-.644-2.676-1.056-2.686-1.773-.041-3.558.443-5.434 1.514zm98.067-16.385c-.088-5.396-.009-10.373-.167-15.341-.117-3.675 1.538-5.16 5.09-4.916 1.486.101 2.994-.073 4.472.075 5.16.518 8.185 4.38 5.938 8.964-1.961 4-1.638 6.964.57 10.348.469.719.382 1.801.61 3.031-6.835 1.218-5.477-7.389-11.02-8.251-.229 2.003-.277 3.893-.715 5.69-.241.99-1.18 2.593-1.725 2.561-1.026-.06-1.994-1.103-3.053-2.16m6.656-10.349 4.765-2.857-5.526-3.73c-.448.47-.897.938-1.346 1.407.468 1.633.936 3.267 2.107 5.18z"/>
  <path fill="#ffffff" d="M828.124 98.91c-4.122-.16-4.04 2.376-4.368 5.003-.166 1.331-1.478 2.52-2.271 3.773-.802-1.233-2.227-2.433-2.296-3.706-.269-4.982-.269-9.996.001-14.977.07-1.268 1.503-2.462 2.31-3.69.789 1.255 2.273 2.529 2.24 3.762-.111 4.066 1.738 5.14 5.477 5.06 3.27-.072 4.935-.922 4.896-4.54-.015-1.415 1.282-2.844 1.981-4.267.635 1.505 1.733 2.986 1.817 4.522.246 4.483.256 8.999-.01 13.48-.087 1.483-1.291 2.9-1.985 4.348-.638-1.317-1.877-2.669-1.805-3.946.238-4.263-1.982-5.198-5.987-4.822zm-33.349 8.402c-1.6-.312-3.173-.588-4.232-1.476-.942-.792-1.105-2.465-1.994-3.377-.957-.981-2.358-1.529-3.565-2.265-.659 1.155-1.351 2.292-1.966 3.47-.683 1.307-1.294 2.652-1.936 3.98-.694-1.45-1.906-2.873-1.984-4.355-.252-4.8-.037-9.621-.103-14.433-.037-2.736 1.18-3.989 3.9-3.847.828.042 1.768-.26 2.47.037 3.053 1.284 7.114 2 8.701 4.349 1.26 1.862-.544 5.794-2.104 8.627 1.021 3.02 2.043 6.04 2.813 9.29m-10.077-18.088c-2.7 2.334-2.642 4.561.856 5.586 1.093.32 2.78-1.387 4.196-2.166-1.428-1.177-2.856-2.353-5.052-3.42zm-24.788 9.665c1.497-3.916 2.743-7.529 4.36-10.968.535-1.14 1.928-2.311 3.112-2.546.7-.139 2.143 1.363 2.59 2.41 2.273 5.322 4.438 10.699 6.366 16.154.363 1.025-.521 2.49-.83 3.753-1.098-.538-2.603-.786-3.227-1.661-3.879-5.439-6.6-5.519-10.315-.308-.789 1.106-2.352 1.661-3.559 2.47l-1.415-.958c.938-2.66 1.875-5.318 2.919-8.346zm-33.92-21.208c-1.195-1.267-1.824-2.786-2.96-3.568-1.462-1.008-3.393-2.067-5.007-1.91-1.5.145-2.848 1.858-4.268 2.875-1.174.84-2.355 1.672-3.532 2.507-.182-1.331-.852-2.83-.463-3.966 1.828-5.342 3.804-10.646 6.015-15.841 1.385-3.255 4.21-3.677 5.428-.852 2.556 5.935 4.694 12.057 6.784 18.177.213.623-1.068 1.757-1.997 2.578z"/>
  <path fill="#ffffff" d="M397.42 74.442c-2.272-5.703 2.342-14.707 7.889-15.18 1.996-.169 4.875 1.27 6.069 2.908 1.202 1.651 1.805 5.008.905 6.647-1.683 3.065-4.35 5.808-7.154 7.978-2.843 2.2-5.567.763-7.71-2.353z"/>
  <path fill="#ffffff" d="M435.895 81.012c-2.035.07-4.697.649-5.2-.143-2.234-3.516-4.542-7.262-5.477-11.24-.828-3.523 1.802-6.43 5.448-7.144 3.35-.656 5.925.857 7.496 4.171 3.019 6.37 2.634 9.978-2.267 14.356z"/>
  <path fill="#ffffff" d="M787.927 77.38c-13.868 1.873-13.868 1.873-13.868-11.212 0-1.162-.181-2.359.037-3.478.476-2.445.775-6.73 1.818-6.94 4.042-.817 8.348-.333 12.555-.333l.186 2.629c-2.024.324-4.126.414-6.045 1.054-1.283.429-2.306 1.639-3.445 2.5 1.024.81 1.951 1.821 3.098 2.383 1.43.701 3.04 1.032 4.572 1.523l-.084 1.588c-1.281.305-2.715.348-3.808.98-1.421.822-2.573 2.113-3.84 3.201 1.29.904 2.484 2.028 3.9 2.635.993.425 2.52-.237 3.385.286.888.536 1.262 1.924 1.54 3.183z"/>
  <path fill="#8f8f8f" d="M1140.247 75.502c-2.734 5.645-7.226 7.85-12.663 6.313-.923-.261-2.264-1.31-2.304-2.054-.203-3.776-.252-7.595.147-11.345.095-.895 2.025-2.067 3.26-2.29 6.922-1.253 10.83 1.87 11.56 9.376z"/>
  <path fill="#ffffff" d="M718.504 107.988c-11.907-.1-10.366 1.312-10.505-10.083-.02-1.66-.17-3.34.036-4.975.318-2.51.338-6.795 1.462-7.14 3.334-1.023 7.147-.554 10.77-.483.484.01 1.447 1.27 1.315 1.636-.273.758-1.045 1.69-1.772 1.857-1.428.328-3.05-.098-4.431.319-1.185.357-2.147 1.454-3.207 2.224.933.898 1.792 1.899 2.834 2.645.46.33 1.427-.076 1.923.236 1.01.634 1.854 1.53 2.766 2.317-.903.778-1.738 1.665-2.74 2.285-.495.307-1.462-.117-1.925.207-1.049.733-1.918 1.725-2.86 2.611 1.056.774 2.018 1.972 3.188 2.232 2.289.51 4.694.497 7.051.7l.295 1.698c-1.254.568-2.508 1.137-4.2 1.714zm-13.68-52.008c.68 1.4 1.027 2.636 1.374 3.872-1.214.006-2.514.3-3.63-.028-6.935-2.041-11.154 1.006-10.536 7.739.474 5.162 4.952 7.567 10.766 6.026 1.473-.39 3.155.012 4.74.05-1.22 1.262-2.249 3.306-3.69 3.657-8.3 2.024-13.81.534-16.23-8.121-1.813-6.481 2.587-13.482 9.752-14.67 2.24-.37 4.74.83 7.454 1.475zm42.652 43.313c-2.359 3.003-1.404 4.426 1.86 4.663 1.325.096 2.728-.16 3.963.2.897.261 1.576 1.272 2.353 1.95-.836.613-1.631 1.676-2.515 1.755-2.639.237-5.365.397-7.947-.049-1.18-.204-2.94-1.856-2.997-2.928-.297-5.636-.24-11.301-.028-16.946.036-.957 1.354-2.574 2.21-2.665 3.12-.331 6.303-.252 9.447-.067.655.038 1.245 1.186 1.865 1.823-.638.62-1.197 1.633-1.928 1.777-1.61.318-3.378-.071-4.94.351-1.015.275-1.78 1.472-2.658 2.255.797.862 1.537 1.788 2.421 2.548.303.26 1.064-.06 1.443.169 1.26.76 2.44 1.649 3.651 2.488-1.283.773-2.53 1.617-3.866 2.283-.557.277-1.304.174-2.334.393z"/>
  <path fill="#8f8f8f" d="M1106.684 122.314c-2.543 2.445-3.976 1.741-4.603-1.2a3.225 3.225 0 0 1-.056-.991c.405-3.857-.292-10.29 1.464-11.05 4.08-1.766 9.35-.937 14.121-.75.577.022 1.055 2.56 1.579 3.932-3.712 1.229-1.77 4.3-2.317 6.622-.417 1.77-1.596 4.428-2.88 4.717-3.222.725-2.863-2.23-2.982-4.335-.037-.662.183-1.413-.058-1.975-.571-1.333-1.348-2.578-2.042-3.858-.635 1.343-1.494 2.63-1.84 4.044-.35 1.42-.188 2.966-.386 4.844z"/>
  <path fill="#ffffff" d="M650.95 74.188c-1.272-2.023-1.272-2.023 1.998-8.473-5.163-4.1-10.4-8.157-12.992-14.455-.423-1.027.767-2.717 1.516-4.187 1.205.18 2.104.447 3.241 1.213-.576 2.706-.632 4.38 2.464 4.591 1.626.111 3.219.721 4.927 1.426 2.23 4.02 5.639 2.86 8.808 2.61.249.29.497.583.987 1.38.59 6.026-.462 6.941-6.61 6.205a3.351 3.351 0 0 0-.836-.497l.423 1.48c1.077 1.378 2.066 2.449 2.663 3.529-3.664.285-6.805.718-6.589 5.178zm159.613 10.859c2.288.822 4.165 1.62 6.043 2.42l-.136 1.693c-1.712.16-3.519.75-5.115.395-3.65-.814-7.117-1.114-9.24 2.546-1.89 3.261-1.727 6.674.914 9.675 2.792 3.173 6.143 2.584 9.584 1.42 1.065-.36 2.145-.673 3.218-1.009l1.204 1.008c-.909 1.211-1.568 2.841-2.771 3.56-4.04 2.41-10.967 1.562-14.431-1.729-3.363-3.193-4.753-7.221-3.384-11.76 1.584-5.254 5.76-8.055 11.712-8.258.663-.022 1.327.01 2.402.039zM756.82 76.4c-5.078-4.186-6.429-11.54-3.29-16.215 3.647-5.431 9.912-7.334 15.581-4.415 1.139.585 1.655 2.38 2.458 3.617-1.309.136-2.718.655-3.909.343-5.639-1.482-9.382-.5-11.09 3.657-1.575 3.835-.647 7.617 3.116 9.375 2.242 1.047 5.31.29 8.004.418 1.284.061 2.56.296 3.84.452-.78 1.08-1.506 3.042-2.348 3.092-3.988.24-8.008-.04-12.362-.324zm-25.262 27.543c3.631-1.108 3.304-2.85.995-4.56-1.45-1.075-3.708-1.34-4.723-2.65-1.554-2.006-3.616-4.93-3.115-6.853.52-1.995 3.653-4.129 5.974-4.61 2.477-.514 5.34.834 8.035 1.37l-.15 2.485c-1.675.077-3.363.055-5.023.261-1.497.186-2.963.622-4.443.948.835 1.16 1.534 2.461 2.548 3.433.81.777 2.003 1.156 3.03 1.705 3.077 1.647 5.276 4.217 4.02 7.618-.72 1.943-3.11 4.06-5.126 4.554-3.353.821-7.3 1.179-10.045-4.555 3.22.365 5.437.616 8.023.854z"/>
  <path fill="#ffffff" d="M702.958 129.384c.044-4.092-.082-7.76.192-11.399.07-.932 1.406-1.77 2.16-2.65.55.892 1.588 1.795 1.57 2.675-.103 4.62.013 9.333-.885 13.826-.895 4.476-4.535 6.375-9.04 6.104-4.47-.268-7.858-2.692-8.63-6.971-.757-4.187-.356-8.61-.188-12.917.04-1.019 1.177-1.994 1.809-2.99l2.06.286c0 4.302.099 8.607-.03 12.905-.11 3.645 1.568 5.681 5.075 6.144 3.41.45 5.25-1.346 5.907-5.013z"/>
  <path fill="#8f8f8f" d="M1057.962 120.547c-.93 1.366-1.842 2.294-2.752 3.222-.738-.935-1.492-1.858-2.21-2.808-.635-.842-1.23-1.714-1.844-2.573-.726.92-1.392 1.897-2.194 2.745-.884.934-1.893 1.75-2.847 2.619-.688-.98-1.892-1.92-1.969-2.944-.247-3.295-.208-6.63.015-9.93.062-.903 1.19-2.464 1.774-2.44 1.012.044 2.471.862 2.885 1.754 1.893 4.077 3.063 3.413 4.442-.286.287-.77 1.796-1.66 2.565-1.519.802.146 1.905 1.426 1.977 2.286.264 3.128.15 6.289.158 9.874zm2.14-41.187c-.066-2.896.01-5.375-.122-7.844-.18-3.415.4-5.857 4.738-5.555 4.589.32 7.33 2.48 7.193 6.378-.101 2.909-.457 5.81-.703 8.746-3.852.978-9.466.332-11.106-1.725z"/>
  <path fill="#ffffff" d="M713.98 134.642c-.448 1.206-.883 1.999-1.319 2.792-.47-.386-1.343-.767-1.348-1.16-.083-6.91-.06-13.821-.06-20.733l1.987-.165 1.45 8.334c5.463-.593 4.647-8.79 11.161-8.274-1.963 3.963-5.162 7.511-4.997 10.896.17 3.477 3.624 6.794 5.027 11.283-1.242-.45-2.76-.601-3.655-1.427-1.048-.967-1.376-2.677-2.34-3.781-1.303-1.493-2.915-2.717-4.394-4.056-.5 1.96-1 3.92-1.512 6.291z"/>
  <path fill="#8f8f8f" d="M1129.843 110.119c1.29 3.466 2.575 6.528 3.505 9.695.317 1.077-.264 2.418-.435 3.64-1.207-.194-2.833.04-3.546-.659-2.43-2.378-4.417-2.366-6.767.073-.628.652-2.058.532-3.12.767-.243-1.155-.92-2.426-.649-3.443.807-3.017 1.78-6.029 3.071-8.869 1.769-3.894 4.488-4.58 7.941-1.204z"/>
  <path fill="#8f8f8f" d="M1091.616 102.96c-7.599.006-7.6.006-7.615-7.06-.002-1.162-.225-2.382.054-3.474.45-1.768.908-4.652 1.939-4.93 2.418-.654 5.363-.594 7.745.213 2.292.775.898 6.912-1.633 9.37.939 1.242 2.092 2.32 2.542 3.639.136.398-1.682 1.462-3.032 2.242z"/>
  <path fill="#ABABAB" d="M613.622 53.004a291.514 291.514 0 0 1 3.617-1.949c2.915 1.837 3.877 3.71 1.655 6.912-.815 1.173-.057 3.62.345 5.404.393 1.742 1.246 3.38 1.84 5.452-2.04 2.678-4.15 4.5-7.658 1.906-.815-1.643-1.315-2.792-1.7-4.257 1.794-3.392.106-4.709-2.593-5.498.66-1.52 1.237-3.082 2.006-4.545.6-1.142 1.438-2.16 2.488-3.425z"/>
  <path fill="#8f8f8f" d="M1100.966 113.076c-1.036 2.071-1.712 4.428-3.215 5.226-2.136 1.134-4.86 1.147-5.163 4.356-1.111-.182-3.182-.324-3.19-.55-.169-4.113-.408-8.283.198-12.316.126-.841 3.561-1.621 5.485-1.654 2.899-.05 5.736.674 5.885 4.938z"/>
  <path fill="#8f8f8f" d="M1096.07 140.375c.597 1.44 1.056 2.588 1.515 3.735l-.979.9-5.494-4.408-2.125 3.985c-1.878-2.152-3.127-12.359-1.304-13.2 2.294-1.058 5.37-1.19 7.87-.638.959.211 1.596 3.383 1.742 5.256.103 1.316-.871 2.716-1.225 4.37z"/>
  <path fill="#ffffff" d="M593.026 121.847c3.458 9.13 1.585 11.557-8.952 11.618-.649-2.024-1.295-4.043-1.837-6.694.7-2.25 1.296-3.866 2.271-5.522 2.4.223 4.423.486 6.797.768a17.24 17.24 0 0 0 1.72-.082c-.034-.018 0-.088 0-.088z"/>
  <path fill="#8f8f8f" d="M1071.005 142.993c-1.248-.036-2.764.36-3.682-.21-1.417-.877-2.424-2.415-3.604-3.673-1.006 1.456-2 2.919-3.024 4.362-.262.37-.614.675-1.864 2.023v-15.189c1.877 1.755 3.347 4.222 4.882 4.263 1.577.041 3.217-2.286 5.437-4.064 3.206 3.182 1.334 7.67 1.847 12.044.003.451.008.444.008.444z"/>
  <path fill="#8f8f8f" d="M1070.997 143.006c1.636-3.403 3.185-6.859 4.967-10.19.553-1.034 1.683-2.315 2.648-2.404.839-.077 2.207 1.187 2.666 2.173 1.745 3.742 3.215 7.612 4.26 12.286-4.682-3.901-8.78-3.17-12.89-.249-.17.12-.966-.64-1.556-1.31-.087-.319-.092-.312-.095-.306z"/>
  <path fill="#8f8f8f" d="M1112.283 87.012c1.764-.004 3.124-.195 4.398.053 1.348.261 2.614.94 3.916 1.436-.709 1.265-1.632 2.46-2.076 3.812-.684 2.084-.862 4.34-1.594 6.401-.52 1.463-1.6 2.727-2.43 4.08-.829-1.36-2.163-2.646-2.378-4.097-.424-2.86-.186-5.3-3.074-7.7-2.654-2.205-.02-3.863 3.238-3.985z"/>
  <path fill="#646464" d="M584.13 121.289a206.743 206.743 0 0 1-1.946 5.127c-1.364 1.063-2.504 2.344-3.794 2.518-1.992.27-4.087-.217-6.138-.383.398-1.832.38-3.914 1.295-5.434 1.273-2.113 3.247-3.804 5.494-5.743 2.034.84 3.495 1.749 4.988 2.971l.1.944z"/>
  <path fill="#616161" d="M584.508 121.25c-.401-.17-.424-.38-.17-.918 1.069-.488 1.86-.648 3.03-.93 6.202-1.099 4.542-5.578 4.794-8.497-1.959-1.464-3.467-2.593-4.89-3.998.248-.82.41-1.362.638-2.018.202-.34.225-.586.081-1.173a23.915 23.915 0 0 1-.083-1.63c.301-.134.592-.288 1.382-.521 2.39 2.276 4.272 4.611 6.111 7.24.548 1.055 1.136 1.816 1.724 2.576l-.38 8.922c-1.03.736-2.045 1.109-3.39 1.513-.33.03-.364.1-.413-.156-.695-.059-1.343.14-1.99.338-2.021-.263-4.043-.526-6.444-.749z"/>
  <path fill="#2A2A2A" d="M586.99 119.524c-.791.16-1.583.32-2.684.493-1.77-.894-3.23-1.802-4.986-2.843-.46-3.469-.617-6.801 3.837-8.702.92-.025 1.167.143 1.706.343 5.981 2.614 6.211 3.952 2.128 10.709z"/>
  <path fill="#8f8f8f" d="M1044.445 133.49c2.23-3.83 5.585-3.727 8.927-3.36.775.086 1.464.946 2.193 1.45-.826.529-1.59 1.263-2.494 1.535-1.226.37-2.963-.054-3.747.664-1.054.965-2.258 3.033-1.866 4.019.623 1.564 2.345 2.934 3.925 3.79 1.053.572 2.668.11 4.69.11-2.282 4.031-5.038 3.642-7.828 2.317-4.278-2.032-5.484-5.327-3.8-10.525z"/>
  <path fill="#ABABAB" d="M605.805 69.768c-2.665 1.38-5.233 3.048-8.044 3.993-1.063.357-2.688-.958-4.372-1.687.604-.938 1.524-1.7 2.802-2.858.865-.932 1.373-1.469 2.184-2.218 1.7-3.037 2.743-6.246 6.803-6.16.37.05.74.1 1.41.521.376 1.771.45 3.17.42 4.898-.47 1.39-.837 2.45-1.203 3.511z"/>
  <path fill="#616161" d="M583.213 60.579c.122 4.203-1.466 5.335-4.933 3.23-1.512-.917-3.32-1.506-4.537-2.707-1.16-1.146-2.7-3.246-2.321-4.294.554-1.537 2.548-3.21 4.16-3.491 1.19-.207 2.895 1.566 4.107 2.73 1.28 1.231 2.247 2.787 3.524 4.532z"/>
  <path fill="#ABABAB" d="M657.975 118.59c-1.872 2.97-3.883 5.639-5.972 8.411-6.598-6.897-6.628-7.307-1.181-11.793 2.467.821 4.74 1.95 7.153 3.381z"/>
  <path fill="#ffffff" d="M89.45 67.634c2.896 5.88 1.904 9.123-2.402 9.37-2.965.17-5.063-.25-5.14-4.098-.071-3.56.668-5.796 4.7-5.608.82.038 1.639.114 2.843.336z"/>
  <path fill="#ffffff" d="M444.077 134.36c1.962-1.554 4.464-4.092 5.67-3.58 1.864.792 3.972 3.742 3.85 5.639-.104 1.598-3.236 3-5.027 4.49-1.512-2.056-3.023-4.111-4.493-6.55z"/>
  <path fill="#ABABAB" d="M584.57 108.783c-.246-.168-.493-.336-1.183-.564-1.21-.654-1.975-1.247-1.556-.922-2.956.565-4.859 1.246-6.7 1.104-.621-.047-1.084-2.177-1.62-3.355 1.736-.704 3.461-1.436 5.21-2.106 1.806-.691 3.635-1.322 5.83-2.097 1.17.245 1.961.608 3.055 1.107.312.572.322 1.007.294 1.998a34.424 34.424 0 0 0-.055 1.055c-.163.542-.325 1.084-.766 2.162-1.02.896-1.764 1.257-2.508 1.618z"/>
  <path fill="#646464" d="M598.072 67.21c-.508.537-1.016 1.074-1.789 1.699-2.062-.208-3.86-.504-6.039-1.23a149.715 149.715 0 0 0-1.443-1.574c-.045-1.43-.09-2.862.3-4.8 1.922-1.106 3.406-1.705 4.891-2.305.793.142 1.585.284 2.71.197.332-.23.273-.253.09.074.296.88.774 1.432 1.241 2.408.005 2.126.022 3.829.039 5.531z"/>
  <path fill="#8f8f8f" d="M1111.867 142.202c-.77.964-1.472 1.535-2.174 2.106-.56-1.104-1.34-2.151-1.64-3.321-.815-3.192-1.427-6.436-2.242-10.227h9.55c-4.39 3-3.21 7.253-3.494 11.442z"/>
  <path fill="#5C5C5C" d="M373.323 122.205c3.43-2.239 5.96-1.001 7.038 1.954.585 1.603-.088 5.137-1.083 5.526-1.844.721-4.76.443-6.471-.629-2.938-1.838-2.202-4.457.516-6.851z"/>
  <path fill="#ABABAB" d="M590.745 99.961c.6-2.892.94-5.878 1.932-8.629.38-1.054 2.25-1.572 3.842-2.325 4.716 1.911 2.795 5.931 2.997 9.51-3.244.776-6.007 1.11-8.77 1.444z"/>
  <path fill="#3D3D3D" d="M590.498 100.06c3.01-.433 5.774-.767 8.94-1.175.741 1.763 1.082 3.6 1.135 5.944-1.901 1.565-3.516 2.624-5.13 3.683-1.881-2.336-3.762-4.671-5.965-7.108.043-.483.407-.864 1.02-1.344z"/>
  <path fill="#616161" d="M655.39 64.666c6.047.568 7.1-.347 6.742-6.202 1.936 1.08 4.576 2.147 5.535 4.058.496.988-1.756 3.693-3.197 5.216-1.275 1.348-3.145 2.134-5.21 2.897-.748-.726-1.038-1.18-1.329-1.634-.989-1.071-1.978-2.142-2.904-3.647.063-.434.364-.688.364-.688zm-57.015 2.332c-.32-1.49-.337-3.193-.312-5.666-.334-1.31-.71-1.849-1.088-2.388 0 0 .059.023.078.048 1.19-1.904 2.03-4.24 3.675-5.591.824-.677 4.183.003 4.53.842.711 1.717.163 3.955.027 6.287-4.167.222-5.21 3.431-6.91 6.468z"/>
  <path fill="#ffffff" d="M410.946 82.576c3.564.16 6.82.444 10.022 1.022.737.134 1.71 1.224 1.808 1.975.091.693-.663 1.855-1.36 2.235-3.928 2.142-7.772 1.71-11.022-1.298-.575-.532.117-2.434.552-3.934z"/>
  <path fill="#ABABAB" d="M663.475 134.077c-.744-.24-1.162-.505-1.518-.836-5.412-5.033-5.41-5.035-.066-9.913 4.895-.107 2.953 5.381 5.89 7.057-1.317 1.213-2.634 2.425-4.306 3.692z"/>
  <path fill="#2A2A2A" d="M588.349 66.064c.806.422 1.16.804 1.58 1.371-.426 7.2-.871 7.636-7.669 7-.691-1.687-.974-3.03-1.257-4.371.835-3.844 3.696-4.23 7.346-4z"/>
  <path fill="#ABABAB" d="M576.898 91.094a68.356 68.356 0 0 0 1.058 3.625c-1.076 1.967-2.014 4.323-3.659 5.025-1.159.495-4.604-1.119-4.699-2.032-.215-2.08 1.004-4.31 2.38-6.6 2.133-.086 3.527-.052 4.92-.018z"/>
  <path fill="#646464" d="M599.879 131.321c.87 2.694 1.974 5.273 5.979 5.45-.734 1.728-1.719 3.172-2.819 4.934-.115.316-.084.248-.084.248-2.283-1.414-5.145-2.422-6.56-4.444-.56-.798 2.107-3.853 3.484-6.188z"/>
  <path fill="#ABABAB" d="M594.002 58.585c-1.495 1.015-2.98 1.614-4.776 2.362-1.61-1.243-4.203-2.986-3.94-3.956.58-2.145 2.597-3.9 4.557-5.664 1.721.995 2.914 1.84 4.107 2.684.02 1.386.041 2.772.052 4.574z"/>
  <path fill="#8f8f8f" d="M577.042 90.807c-1.537.253-2.93.219-4.74.137-1.073-1.893-2.598-4.01-2.132-5.504.42-1.346 3.2-3.007 4.624-2.753 2.44.435 4.958 2.056 3.493 5.878-.416.871-.758 1.413-1.245 2.242z"/>
  <path fill="#ABABAB" d="M613.563 134.936c2.478 1.74 4.594 3.54 7.018 5.602-3.867.361-6.529.61-9.385 1.156-1.17-.486-2.146-1.269-3.256-2.344 1.664-1.645 3.463-3 5.623-4.414z"/>
  <path fill="#ffffff" d="M565.27 111.34c-.255-2.062-.57-3.98-.072-5.656.199-.668 2.737-1.474 3.268-1.047 1.358 1.093 3.28 3.095 3.007 4.28-.633 2.745-2.742 4.485-6.203 2.423z"/>
  <path fill="#ABABAB" d="M587.641 78.947c.281 2.002.222 3.857-.01 6.122a4.883 4.883 0 0 0-.206.537c-.327.086-.654.171-1.218.372-3.232.007-5.897-1.11-5.216-4.467.624-3.073 2.957-4.71 6.65-2.564z"/>
  <path fill="#2B2B2B" d="M657.54 69.01c.682.445.972.9 1.358 1.606.096 4.393-2.369 5.595-6.415 5.41-.69-.435-.985-.896-1.406-1.598-.343-4.7 2.798-5.133 6.462-5.418zm-19.785-26.069c.55 4.6-1.083 7.119-6.448 6.034a70.972 70.972 0 0 1-.46-4.18c1.636-3.208 3.948-3.22 6.908-1.854z"/>
  <path fill="#616161" d="M660.949 56.535c-3.206.629-6.614 1.788-8.918-2.492-.035-1.427.102-2.274.24-3.121 1.554.392 3.319.45 4.608 1.262 1.578.994 2.756 2.62 4.07 4.35z"/>
  <path fill="#8f8f8f" d="M1100.005 137.056c.202-2.456.404-4.46.607-6.463l1.56.085v13.596l-1.559.216a501.407 501.407 0 0 1-.608-7.434z"/>
  <path fill="#ABABAB" d="M606.65 44.264c-.006 1.946.28 4.245-.682 5.05-.846.707-3.33.14-4.626-.64-.74-.444-.551-2.434-.781-3.729 1.946-.326 3.891-.651 6.088-.681z"/>
  <path fill="#616161" d="M606.083 69.967c.088-1.26.455-2.32 1.24-3.616 1.708-.01 2.996.214 4.284.437.5 1.15.999 2.298 1.446 3.84a17.044 17.044 0 0 1-3.686 3.396c-1.246-1.28-2.126-2.57-3.284-4.057z"/>
  <path fill="#ABABAB" d="M570.998 75.911c-1.433 1.262-2.88 2.763-4.287 2.727-.918-.024-2.575-2.372-2.443-3.51.134-1.146 2.274-3.068 3.167-2.882 1.356.282 2.394 2.091 3.563 3.665z"/>
  <path fill="#616161" d="M614.086 122.561c-.586 2.173-1.253 3.996-1.919 5.819-5.414-1.418-5.457-1.567-2.208-8.014 1.377.392 2.711 1.118 4.127 2.195z"/>
  <path fill="#2A2A2A" d="M653.004 136.105c.845 1.227 1.69 2.453 2.803 3.86-.827 1.108-1.922 2.037-3.557 2.72-2.325-1.039-4.11-1.833-5.792-3.036.585-4.873 4.102-3.105 6.546-3.544zm-50.114 5.9c1.314 1.06 2.998 1.93 3.842 3.313.336.551-.974 2.928-1.921 3.22-1.046.323-3.626-.783-3.63-1.283-.014-1.577.866-3.163 1.587-5.023.187-.279.156-.21.122-.227z"/>
  <path fill="#2B2B2B" d="M639.124 72.321c.947-.79 2.02-1.262 2.985-2.023-.108-.29-.125-.265-.125-.265 6.009 1.3 6.272 1.708 4 6.732-2.333-1.163-4.534-2.644-6.86-4.444z"/>
  <path fill="#646464" d="M652.147 50.583c-.014 1.186-.15 2.033-.215 3.14-1.536-.125-3.129-.735-4.755-.846-3.096-.21-3.04-1.885-2.147-4.43 3.249-2.424 5.48-1.473 7.117 2.136z"/>
  <path fill="#616161" d="M570.496 122.62c-2-.762-3.672-1.717-5.343-2.673.633-1.057 1.036-2.564 1.966-3.04.883-.453 3.207-.097 3.351.375.488 1.602.29 3.413.026 5.337zm10.18-52.696c.61 1.482.893 2.824 1.154 4.513-1.89.288-3.793.387-5.595.008-.3-.063-.658-2.845-.123-3.263 1.103-.862 2.79-.976 4.564-1.258z"/>
  <path fill="#ffffff" d="M561.307 89.597c-2.05 2.947-4.295 3.074-6.225.6-.44-.564.307-2.991 1.113-3.42 2.506-1.328 4.927-1.344 5.112 2.82z"/>
  <path fill="#646464" d="M591.157 144.864c1.313-1.472 2.556-2.811 4.09-3.517.394-.181 2.388 1.611 2.426 2.547.048 1.172-1.32 3.473-1.8 3.402-1.625-.24-3.128-1.31-4.716-2.432z"/>
  <path fill="#2B2B2B" d="M564.003 130.393c.878.392 1.834.773 1.843 1.175.04 1.747-.089 3.525-.466 5.223-.049.22-2.746.215-2.787.016-.356-1.71-.484-3.491-.435-5.244.011-.404.966-.782 1.845-1.17z"/>
  <path fill="#646464" d="M646.357 140.057c1.784.795 3.568 1.59 5.569 2.7a24.035 24.035 0 0 1-7.306 2.777c-.15-1.617.053-2.855.414-4.294.547-.529.935-.856 1.323-1.183zm-85.324-74.155c.418-1.754.598-3.63 1.622-4.434.634-.498 2.89.286 3.762 1.153.56.557.18 3.257-.223 3.367-1.585.433-3.346.22-5.16-.086z"/>
  <path fill="#2A2A2A" d="M644.875 141.441a245.636 245.636 0 0 0-.633 4.03c-1.549.056-3.07-.204-4.98-.506-.41-1.186-.431-2.332.004-3.801 2.173-.123 3.891.077 5.609.277zM611.72 66.472c-1.4.093-2.689-.131-4.293-.45-.39-1.492-.463-2.892-.565-4.604.484-.313.996-.314 1.887-.38 3.078.725 4.766 2.042 2.972 5.434z"/>
  <path fill="#ABABAB" d="M595.401 108.806c1.656-1.353 3.27-2.412 5.193-3.571.397 1.626.487 3.352.426 5.409-1.147.46-2.143.589-3.517.728-.966-.751-1.554-1.512-2.102-2.566z"/>
  <path fill="#2A2A2A" d="M594.227 53.804c-1.47-.638-2.663-1.482-4.04-2.584 1.407-.902 2.996-1.545 4.585-2.187-.09 1.521-.178 3.043-.545 4.771z"/>
  <path fill="#5C5C5C" d="M576.632 134.168c.76 1.287 1.466 2.496 1.393 3.657-.026.416-2.043 1.165-2.938.935-.82-.21-1.352-1.538-2.011-2.373 1.064-.772 2.129-1.544 3.556-2.22zM551.664 79.8c-1.634.024-3.006-.203-4.378-.43.186-.894.08-2.178.629-2.588.772-.578 2.585-1.017 2.959-.607.719.788.74 2.212.79 3.624z"/>
  <path fill="#030303" d="M932.68 115.15c-5.398-3.82-3.928-9.732-5.47-14.62 5.501-.477 6.867-1.862 4.296-5.12-6-7.602-2.188-14.715.708-21.442 6.476-15.04 18.944-21.48 35.59-22.4-.254 2.369-.773 4.424-.6 6.42.156 1.788 1.075 3.509 1.657 5.259 1.764-.654 4.005-.85 5.182-2.07 1.793-1.86 3.099-4.318 4.163-6.721 1.816-4.103 4.5-4.918 8.407-3.068 8.534 4.04 14.286 11.029 18.382 19.05 3.677 7.2 6.092 15.073 8.674 22.78.432 1.287-.809 3.484-1.847 4.816-1.048 1.342-2.807 2.13-4.255 3.161l.785 1.667 8.159 2.208c-5.48 4.198-2.995 10.299-4.869 14.914-5.133 12.641-16.306 17.286-29.003 19.95-19.398 4.07-34.604-2.495-47.004-16.976-1.632-1.905-1.934-4.948-2.955-7.808m62.864-24.04c-1.84-1.082-3.571-2.457-5.541-3.187-4.644-1.721-10.502.225-13.355 4.135-3.016 4.133-3.147 11.384-.28 15.559 2.43 3.537 9.374 5.494 14.119 3.978 4.422-1.413 7.546-5.761 7.394-11.283-.08-2.89-1.184-5.75-2.337-9.202z"/>
  <path d="M919.812 103.436c.287 2.653.503 4.917.724 7.234-4.868-2.558-5.976-7.297-2.45-12.37.638 1.829 1.147 3.289 1.726 5.136zm106.091.044c3.514 3.497 2.379 6.042-1.553 8.674-1.644-3.584-2.53-6.427 1.553-8.673zM233.518 90.945c2.721-1.574 5.052-3.11 7.383-4.645l-.418-1.267c-.444 2.09-.86 4.185-1.339 6.267-.487 2.121-1.034 4.229-1.853 7.553-1.905.16-5.512 1.094-7.067-3.191-.73-2.013-.987-4.95 3.294-4.717zm10.034 24.026c3.196-.903 5.96-1.786 9.71-2.983l-2.9 4.953c-7.263-3.593-16.408 2.9-23.604-4.485 5.82.902 11.091 1.719 16.794 2.515zM221.777 87.18c-1.513-2.627-.68-4.67 2.957-7.92l1.246.643c-1.294 2.382-2.587 4.764-4.203 7.277zm17.083 16.94c.265-1.432.851-2.845 1.438-4.257l1.1.587c-.739 1.23-1.478 2.46-2.539 3.67zm-19.708-22.668c-.404-.507-.667-1.266-.93-2.026l1.657-.342c-.195.705-.39 1.41-.727 2.368zM143.957 94.2c2.895-5.175 7.514-6.407 12.106-4.779 2.695.956 4.529 4.34 6.75 6.63l-1.067 1.858c-5.683 0-11.369.056-17.046-.142-.327-.012-.582-2.083-.743-3.568z"/>
  <path fill="#ABABAB" d="M645.034 141.24c-1.877.001-3.595-.2-5.671-.38-.428-.152-.497-.323-.74-.709.117-1.816.409-3.417.782-5.469 3.965 2.03 6.878 1.174 8.504-3.302 2.983-3.135 2.983-3.135 6.215-1.091-.382 1.694-.764 3.39-1.133 5.45-2.43.805-5.948-.963-6.533 3.91-.49.735-.877 1.062-1.424 1.59z"/>
  <path d="M1103.16 72.964c-.313 1.426-.546 3.05-1.422 3.552-.638.366-2.332-.525-3.145-1.29-.41-.387-.03-2.496.195-2.531 1.36-.213 2.778-.05 4.371.27zm-38.028-14.741c-.201.065-.407.002-.614-.06.203-.023.406-.046.614.06z"/>
  <path fill="#ABABAB" d="M628.066 52.344c1.062-.553 2.007-.776 3.24-1.066a78.738 78.738 0 0 0 1.87 3.57c-.362 1.888-.95 3.495-1.532 5.09-5.674-1.984-6.264-3.273-3.578-7.594z"/>
  <path d="M587.517 85.449c.162.166.265.361.368.556-.104-.034-.209-.068-.387-.25-.073-.15-.04-.277.02-.306zm478.815 27.845c.888 1.405 1.43 2.869 1.973 4.333-.841.099-1.987.595-2.47.226-1.871-1.432-2.378-3.087.497-4.559z"/>
  <path fill="#2B2B2B" d="M642.014 70c.013-.007-.075-.074-.052-.02.022.053.04.028.052.02z"/>
  <path d="M693.125 91.25c1.828-.681 3.613-1.165 5.386-1.124.412.01 1.376 2.301 1.057 2.686-.821.986-2.469 2.275-3.33 2.003-1.262-.4-2.127-2.055-3.113-3.564zm104.324-26.482c-.82-1.774-1.288-3.408-1.756-5.041l1.346-1.407 5.526 3.73c-1.588.952-3.176 1.905-5.116 2.718zm-12.367 24.401c1.812 1.122 3.24 2.298 4.668 3.475-1.416.78-3.103 2.486-4.196 2.166-3.498-1.025-3.556-3.252-.472-5.641z"/>
  <path fill="#616161" d="M654.939 65.048c-.263-.264-.374-.656-.486-1.047.245.11.49.22.837.497.1.168-.2.422-.351.55z"/>
  <path d="M591.305 122.017c.294-.217.942-.416 1.672-.339-.385.303-.852.33-1.672.339zm-6.442-13.202c.452-.393 1.195-.754 2.131-1.373 1.7.87 3.21 1.999 5.168 3.463-.252 2.919 1.408 7.398-4.793 8.497 3.705-6.635 3.475-7.973-2.506-10.587z"/>
  <path fill="#ffffff" d="M587.91 104.889c-.065.114-.048-.385.043-.618.182.032.159.277-.043.618z"/>
  <path d="M596.792 59.27c.56.213.937.752 1.283 1.639-.509-.206-.987-.759-1.283-1.638z"/>
  <path fill="#ffffff" d="M995.8 91.4c.897 3.162 2.001 6.023 2.08 8.912.153 5.522-2.971 9.87-7.393 11.283-4.745 1.516-11.69-.44-14.119-3.978-2.867-4.175-2.736-11.426.28-15.559 2.853-3.91 8.71-5.856 13.355-4.135 1.97.73 3.701 2.105 5.797 3.477m-12.438 12.984c2.976.774 6.506 1.695 7.616-2.06.665-2.251-.145-5.505-1.472-7.537-.65-.995-4.889-1.13-5.936-.083-2.456 2.453-3.946 5.854-.208 9.68z"/>
  <path d="M983.034 104.16c-3.41-3.602-1.92-7.003.536-9.456 1.047-1.046 5.286-.912 5.936.083 1.327 2.032 2.137 5.286 1.472 7.537-1.11 3.755-4.64 2.834-7.944 1.836z"/>
</svg>
